<svg xmlns="http://www.w3.org/2000/svg" width="590" height="592.8" fill="none">
  <g style="fill:#000">
    <path fill="none" d="M381 187c38-65-8-196-96-187-88 10-114 135-76 199-49-49-180-59-205 22-25 82 84 155 155 143-71 32-121 162-45 214 75 52 180-41 186-118 8 77 126 170 196 106 70-63 4-189-71-215 75 11 185-59 162-145-23-85-158-73-206-19ZM301 11c35 5 63 43 74 72 11 30 5 42 5 64 0 23-14 41-18 55-5 14-32 39-21 44 11 6 23-31 35-38 12-6 24-26 40-32 16-7 35-19 54-19 19-1 46 1 63 9 17 9 31 16 40 34 9 17 4 43-3 60-7 18-17 30-30 43-13 14-31 19-47 27-15 7-49 7-64 8-15 2-58-12-58-1 0 12 39 15 49 24 10 10 33 17 44 30 11 12 26 23 33 40 7 16 16 39 14 58-2 20-1 43-15 59-14 15-22 26-48 25-26 0-30 0-60-13-29-13-58-47-68-78-10-30-12-24-15-58-3-33-9-23-11 8-2 32-5 28-15 59-10 30-40 64-69 76-30 13-37 12-62 11-25 0-32-13-45-29-12-15-13-40-14-59a132 132 0 0 1 49-97c13-10 29-24 45-28 15-4 48-23 25-22s-42 13-64 9c-22-3-42-3-60-12-19-10-29-17-42-31-14-15-20-29-26-48-6-18-3-43 11-56 15-14 28-22 46-27a129 129 0 0 1 115 20c15 12 27 17 39 35 11 17 32 26 18 4-13-21-18-26-26-46-9-21-14-37-16-58s3-43 12-61c9-17 17-28 32-41 15-12 34-22 54-20Z" class="fills" style="fill:none;fill-opacity:0"/>
    <g fill="none" fill-opacity="0" class="strokes">
      <path d="M381 187c38-65-8-196-96-187-88 10-114 135-76 199-49-49-180-59-205 22-25 82 84 155 155 143-71 32-121 162-45 214 75 52 180-41 186-118 8 77 126 170 196 106 70-63 4-189-71-215 75 11 185-59 162-145-23-85-158-73-206-19ZM301 11c35 5 63 43 74 72 11 30 5 42 5 64 0 23-14 41-18 55-5 14-32 39-21 44 11 6 23-31 35-38 12-6 24-26 40-32 16-7 35-19 54-19 19-1 46 1 63 9 17 9 31 16 40 34 9 17 4 43-3 60-7 18-17 30-30 43-13 14-31 19-47 27-15 7-49 7-64 8-15 2-58-12-58-1 0 12 39 15 49 24 10 10 33 17 44 30 11 12 26 23 33 40 7 16 16 39 14 58-2 20-1 43-15 59-14 15-22 26-48 25-26 0-30 0-60-13-29-13-58-47-68-78-10-30-12-24-15-58-3-33-9-23-11 8-2 32-5 28-15 59-10 30-40 64-69 76-30 13-37 12-62 11-25 0-32-13-45-29-12-15-13-40-14-59a132 132 0 0 1 49-97c13-10 29-24 45-28 15-4 48-23 25-22s-42 13-64 9c-22-3-42-3-60-12-19-10-29-17-42-31-14-15-20-29-26-48-6-18-3-43 11-56 15-14 28-22 46-27a129 129 0 0 1 115 20c15 12 27 17 39 35 11 17 32 26 18 4-13-21-18-26-26-46-9-21-14-37-16-58s3-43 12-61c9-17 17-28 32-41 15-12 34-22 54-20Z" class="stroke-shape" style="fill:none;stroke-width:.3;stroke:#e0868e;stroke-opacity:1"/>
    </g>
    <path fill="none" d="M301 11c-20-2-39 8-54 20-15 13-23 24-32 41-9 18-14 40-12 61s7 37 16 58c8 20 13 25 26 46 14 22-7 13-18-4-12-18-24-23-39-35s-32-17-50-23c-18-5-46-3-65 3-18 5-31 13-46 27-14 13-17 38-11 56 6 19 12 33 26 48 13 14 23 21 42 31 18 9 38 9 60 12 22 4 41-8 64-9s-10 18-25 22c-16 4-32 18-45 29a132 132 0 0 0-49 96c1 19 2 44 14 59 13 16 20 29 45 29 25 1 32 2 62-11 29-12 59-46 69-76 10-31 13-27 15-59 2-31 8-41 11-8 3 34 5 28 15 58 10 31 39 65 68 78 30 13 34 13 60 13 26 1 34-10 48-25 14-16 13-39 15-59 2-19-7-42-14-58-7-17-22-28-33-40-11-13-34-20-44-30-10-9-49-12-49-24 0-11 43 3 58 1 15-1 49-1 64-8 16-8 34-13 47-27 13-13 23-25 30-43 7-17 12-43 3-60-9-18-23-25-40-34-17-8-44-10-63-9-19 0-38 12-54 19-16 6-28 26-40 32-12 7-24 44-35 38-11-5 16-30 21-44 4-14 18-32 18-55 0-22 6-34-5-64-11-29-39-67-74-72Zm0 266c48 8 35 87-14 77-49-9-37-85 14-77Z" class="fills" style="fill:none;fill-opacity:0"/>
    <g fill="none" fill-opacity="0" class="strokes">
      <path d="M301 11c-20-2-39 8-54 20-15 13-23 24-32 41-9 18-14 40-12 61s7 37 16 58c8 20 13 25 26 46 14 22-7 13-18-4-12-18-24-23-39-35s-32-17-50-23c-18-5-46-3-65 3-18 5-31 13-46 27-14 13-17 38-11 56 6 19 12 33 26 48 13 14 23 21 42 31 18 9 38 9 60 12 22 4 41-8 64-9s-10 18-25 22c-16 4-32 18-45 29a132 132 0 0 0-49 96c1 19 2 44 14 59 13 16 20 29 45 29 25 1 32 2 62-11 29-12 59-46 69-76 10-31 13-27 15-59 2-31 8-41 11-8 3 34 5 28 15 58 10 31 39 65 68 78 30 13 34 13 60 13 26 1 34-10 48-25 14-16 13-39 15-59 2-19-7-42-14-58-7-17-22-28-33-40-11-13-34-20-44-30-10-9-49-12-49-24 0-11 43 3 58 1 15-1 49-1 64-8 16-8 34-13 47-27 13-13 23-25 30-43 7-17 12-43 3-60-9-18-23-25-40-34-17-8-44-10-63-9-19 0-38 12-54 19-16 6-28 26-40 32-12 7-24 44-35 38-11-5 16-30 21-44 4-14 18-32 18-55 0-22 6-34-5-64-11-29-39-67-74-72Zm0 266c48 8 35 87-14 77-49-9-37-85 14-77Z" class="stroke-shape" style="fill:none;stroke-width:.3;stroke:#f2bbbf;stroke-opacity:1"/>
    </g>
    <path fill="none" d="M301 277c-51-8-63 68-14 77 49 10 62-69 14-77Z" class="fills" style="fill:none;fill-opacity:0"/>
    <g fill="none" fill-opacity="0" class="strokes">
      <path d="M301 277c-51-8-63 68-14 77 49 10 62-69 14-77Z" class="stroke-shape" style="fill:none;stroke-width:.3;stroke:#f8e48a;stroke-opacity:1"/>
    </g>
    <path stroke="None" d="M381 187c38-65-8-196-96-187-88 10-114 135-76 199-49-49-180-59-205 22-25 82 84 155 155 143-71 32-121 162-45 214 75 52 180-41 186-118 8 77 126 170 196 106 70-63 4-189-71-215 75 11 185-59 162-145-23-85-158-73-206-19ZM301 11c35 5 63 43 74 72 11 30 5 42 5 64 0 23-14 41-18 55-5 14-32 39-21 44 11 6 23-31 35-38 12-6 24-26 40-32 16-7 35-19 54-19 19-1 46 1 63 9 17 9 31 16 40 34 9 17 4 43-3 60-7 18-17 30-30 43-13 14-31 19-47 27-15 7-49 7-64 8-15 2-58-12-58-1 0 12 39 15 49 24 10 10 33 17 44 30 11 12 26 23 33 40 7 16 16 39 14 58-2 20-1 43-15 59-14 15-22 26-48 25-26 0-30 0-60-13-29-13-58-47-68-78-10-30-12-24-15-58-3-33-9-23-11 8-2 32-5 28-15 59-10 30-40 64-69 76-30 13-37 12-62 11-25 0-32-13-45-29-12-15-13-40-14-59a132 132 0 0 1 49-97c13-10 29-24 45-28 15-4 48-23 25-22s-42 13-64 9c-22-3-42-3-60-12-19-10-29-17-42-31-14-15-20-29-26-48-6-18-3-43 11-56 15-14 28-22 46-27a129 129 0 0 1 115 20c15 12 27 17 39 35 11 17 32 26 18 4-13-21-18-26-26-46-9-21-14-37-16-58s3-43 12-61c9-17 17-28 32-41 15-12 34-22 54-20Z" class="fills" style="fill:#e0868e"/>
    <path stroke="None" d="M301 11c-20-2-39 8-54 20-15 13-23 24-32 41-9 18-14 40-12 61s7 37 16 58c8 20 13 25 26 46 14 22-7 13-18-4-12-18-24-23-39-35s-32-17-50-23c-18-5-46-3-65 3-18 5-31 13-46 27-14 13-17 38-11 56 6 19 12 33 26 48 13 14 23 21 42 31 18 9 38 9 60 12 22 4 41-8 64-9s-10 18-25 22c-16 4-32 18-45 29a132 132 0 0 0-49 96c1 19 2 44 14 59 13 16 20 29 45 29 25 1 32 2 62-11 29-12 59-46 69-76 10-31 13-27 15-59 2-31 8-41 11-8 3 34 5 28 15 58 10 31 39 65 68 78 30 13 34 13 60 13 26 1 34-10 48-25 14-16 13-39 15-59 2-19-7-42-14-58-7-17-22-28-33-40-11-13-34-20-44-30-10-9-49-12-49-24 0-11 43 3 58 1 15-1 49-1 64-8 16-8 34-13 47-27 13-13 23-25 30-43 7-17 12-43 3-60-9-18-23-25-40-34-17-8-44-10-63-9-19 0-38 12-54 19-16 6-28 26-40 32-12 7-24 44-35 38-11-5 16-30 21-44 4-14 18-32 18-55 0-22 6-34-5-64-11-29-39-67-74-72Zm0 266c48 8 35 87-14 77-49-9-37-85 14-77Z" class="fills" style="fill:#f2bbbf"/>
    <path stroke="None" d="M301 277c-51-8-63 68-14 77 49 10 62-69 14-77Z" class="fills" style="fill:#f8e48a"/>
  </g>
</svg>
