<svg width="662" xmlns="http://www.w3.org/2000/svg" height="633" fill="none"><g style="fill: rgb(0, 0, 0);"><path d="M234.000,219.000C264.000,263.000,299.000,304.000,330.000,347.000L327.000,347.000L329.000,349.000C277.000,365.000,227.000,386.000,175.000,401.000C175.000,402.000,176.000,405.000,174.000,405.000L132.000,630.000C198.000,539.000,259.000,444.000,327.000,353.000L331.000,347.000C332.000,232.000,330.000,116.000,332.000,2.000L330.000,0.000L234.000,219.000ZZ" fill="none" style="fill: none;" class="fills"/><g fill="none" class="strokes"><path d="M234.000,219.000C264.000,263.000,299.000,304.000,330.000,347.000L327.000,347.000L329.000,349.000C277.000,365.000,227.000,386.000,175.000,401.000C175.000,402.000,176.000,405.000,174.000,405.000L132.000,630.000C198.000,539.000,259.000,444.000,327.000,353.000L331.000,347.000C332.000,232.000,330.000,116.000,332.000,2.000L330.000,0.000L234.000,219.000ZZ" style="fill: none; stroke-width: 0.3; stroke: rgb(208, 137, 84); stroke-opacity: 1;" class="stroke-shape"/></g><path d="M331.000,347.000L428.000,220.000C397.000,147.000,365.000,74.000,332.000,2.000C330.000,116.000,332.000,232.000,331.000,347.000ZZ" fill="none" style="fill: none;" class="fills"/><g fill="none" class="strokes"><path d="M331.000,347.000L428.000,220.000C397.000,147.000,365.000,74.000,332.000,2.000C330.000,116.000,332.000,232.000,331.000,347.000ZZ" style="fill: none; stroke-width: 0.3; stroke: rgb(167, 95, 46); stroke-opacity: 1;" class="stroke-shape"/></g><path d="M6.000,258.000C5.000,256.000,3.000,256.000,3.000,254.000L327.000,347.000L330.000,347.000C299.000,304.000,264.000,263.000,234.000,219.000C157.000,232.000,78.000,241.000,0.000,252.000L6.000,258.000ZZ" fill="none" style="fill: none;" class="fills"/><g fill="none" class="strokes"><path d="M6.000,258.000C5.000,256.000,3.000,256.000,3.000,254.000L327.000,347.000L330.000,347.000C299.000,304.000,264.000,263.000,234.000,219.000C157.000,232.000,78.000,241.000,0.000,252.000L6.000,258.000ZZ" style="fill: none; stroke-width: 0.3; stroke: rgb(221, 153, 99); stroke-opacity: 1;" class="stroke-shape"/></g><path d="M331.000,347.000L327.000,353.000C329.000,352.000,329.000,350.000,331.000,350.000L331.000,511.000L530.000,633.000L529.000,630.000C497.000,586.000,464.000,536.000,432.000,489.000L332.000,348.000L637.000,260.000C643.000,258.000,655.000,253.000,659.000,254.000C660.000,255.000,661.000,253.000,662.000,252.000L428.000,220.000L331.000,347.000ZZ" fill="none" style="fill: none;" class="fills"/><g fill="none" class="strokes"><path d="M331.000,347.000L327.000,353.000C329.000,352.000,329.000,350.000,331.000,350.000L331.000,511.000L530.000,633.000L529.000,630.000C497.000,586.000,464.000,536.000,432.000,489.000L332.000,348.000L637.000,260.000C643.000,258.000,655.000,253.000,659.000,254.000C660.000,255.000,661.000,253.000,662.000,252.000L428.000,220.000L331.000,347.000ZZ" style="fill: none; stroke-width: 0.3; stroke: rgb(189, 117, 66); stroke-opacity: 1;" class="stroke-shape"/></g><path d="M529.000,630.000C516.000,554.000,501.000,479.000,487.000,404.000C542.000,353.000,602.000,305.000,659.000,255.000C655.000,253.000,643.000,258.000,637.000,260.000L332.000,348.000L432.000,489.000C464.000,536.000,497.000,586.000,529.000,630.000ZZ" fill="none" style="fill: none;" class="fills"/><g fill="none" class="strokes"><path d="M529.000,630.000C516.000,554.000,501.000,479.000,487.000,404.000C542.000,353.000,602.000,305.000,659.000,255.000C655.000,253.000,643.000,258.000,637.000,260.000L332.000,348.000L432.000,489.000C464.000,536.000,497.000,586.000,529.000,630.000ZZ" style="fill: none; stroke-width: 0.3; stroke: rgb(164, 91, 43); stroke-opacity: 1;" class="stroke-shape"/></g><path d="M6.000,258.000L119.000,355.000C137.000,372.000,160.000,386.000,174.000,405.000C176.000,405.000,175.000,402.000,175.000,401.000C227.000,386.000,277.000,365.000,329.000,349.000L327.000,347.000L3.000,254.000C3.000,256.000,5.000,256.000,6.000,258.000ZZ" fill="none" style="fill: none;" class="fills"/><g fill="none" class="strokes"><path d="M6.000,258.000L119.000,355.000C137.000,372.000,160.000,386.000,174.000,405.000C176.000,405.000,175.000,402.000,175.000,401.000C227.000,386.000,277.000,365.000,329.000,349.000L327.000,347.000L3.000,254.000C3.000,256.000,5.000,256.000,6.000,258.000ZZ" style="fill: none; stroke-width: 0.3; stroke: rgb(190, 119, 68); stroke-opacity: 1;" class="stroke-shape"/></g><path d="M327.000,353.000C259.000,444.000,198.000,539.000,132.000,630.000C137.000,633.000,146.000,623.000,152.000,621.000L331.000,511.000L331.000,350.000C329.000,350.000,329.000,352.000,327.000,353.000ZZ" fill="none" style="fill: none;" class="fills"/><g fill="none" class="strokes"><path d="M327.000,353.000C259.000,444.000,198.000,539.000,132.000,630.000C137.000,633.000,146.000,623.000,152.000,621.000L331.000,511.000L331.000,350.000C329.000,350.000,329.000,352.000,327.000,353.000ZZ" style="fill: none; stroke-width: 0.3; stroke: rgb(167, 94, 46); stroke-opacity: 1;" class="stroke-shape"/></g><path d="M234.000,219.000C264.000,263.000,299.000,304.000,330.000,347.000L327.000,347.000L329.000,349.000C277.000,365.000,227.000,386.000,175.000,401.000C175.000,402.000,176.000,405.000,174.000,405.000L132.000,630.000C198.000,539.000,259.000,444.000,327.000,353.000L331.000,347.000C332.000,232.000,330.000,116.000,332.000,2.000L330.000,0.000L234.000,219.000ZZ" stroke="None" style="fill: rgb(208, 137, 84);" class="fills"/><path d="M331.000,347.000L428.000,220.000C397.000,147.000,365.000,74.000,332.000,2.000C330.000,116.000,332.000,232.000,331.000,347.000ZZ" stroke="None" style="fill: rgb(167, 95, 46);" class="fills"/><path d="M6.000,258.000C5.000,256.000,3.000,256.000,3.000,254.000L327.000,347.000L330.000,347.000C299.000,304.000,264.000,263.000,234.000,219.000C157.000,232.000,78.000,241.000,0.000,252.000L6.000,258.000ZZ" stroke="None" style="fill: rgb(221, 153, 99);" class="fills"/><path d="M331.000,347.000L327.000,353.000C329.000,352.000,329.000,350.000,331.000,350.000L331.000,511.000L530.000,633.000L529.000,630.000C497.000,586.000,464.000,536.000,432.000,489.000L332.000,348.000L637.000,260.000C643.000,258.000,655.000,253.000,659.000,254.000C660.000,255.000,661.000,253.000,662.000,252.000L428.000,220.000L331.000,347.000ZZ" stroke="None" style="fill: rgb(189, 117, 66);" class="fills"/><path d="M529.000,630.000C516.000,554.000,501.000,479.000,487.000,404.000C542.000,353.000,602.000,305.000,659.000,255.000C655.000,253.000,643.000,258.000,637.000,260.000L332.000,348.000L432.000,489.000C464.000,536.000,497.000,586.000,529.000,630.000ZZ" stroke="None" style="fill: rgb(164, 91, 43);" class="fills"/><path d="M6.000,258.000L119.000,355.000C137.000,372.000,160.000,386.000,174.000,405.000C176.000,405.000,175.000,402.000,175.000,401.000C227.000,386.000,277.000,365.000,329.000,349.000L327.000,347.000L3.000,254.000C3.000,256.000,5.000,256.000,6.000,258.000ZZ" stroke="None" style="fill: rgb(190, 119, 68);" class="fills"/><path d="M327.000,353.000C259.000,444.000,198.000,539.000,132.000,630.000C137.000,633.000,146.000,623.000,152.000,621.000L331.000,511.000L331.000,350.000C329.000,350.000,329.000,352.000,327.000,353.000ZZ" stroke="None" style="fill: rgb(167, 94, 46);" class="fills"/></g></svg>