<svg width="277" xmlns="http://www.w3.org/2000/svg" height="618" fill="none"><g style="fill: rgb(0, 0, 0);"><path d="M112.000,220.000C114.000,219.000,113.000,217.000,113.000,216.000C122.000,222.000,129.000,233.000,139.000,238.000C140.000,160.000,138.000,80.000,140.000,3.000L138.000,0.000L106.000,88.000L126.000,74.000L112.000,220.000ZZ" fill="none" style="fill: none;" class="fills"/><g fill="none" class="strokes"><path d="M112.000,220.000C114.000,219.000,113.000,217.000,113.000,216.000C122.000,222.000,129.000,233.000,139.000,238.000C140.000,160.000,138.000,80.000,140.000,3.000L138.000,0.000L106.000,88.000L126.000,74.000L112.000,220.000ZZ" style="fill: none; stroke-width: 0.3; stroke: rgb(243, 216, 102); stroke-opacity: 1;" class="stroke-shape"/></g><path d="M139.000,238.000L139.000,239.000C148.000,248.000,159.000,254.000,167.000,264.000C169.000,264.000,167.000,260.000,169.000,260.000C163.000,198.000,158.000,135.000,150.000,73.000C158.000,77.000,164.000,84.000,172.000,88.000C160.000,60.000,151.000,31.000,140.000,3.000C138.000,80.000,140.000,160.000,139.000,238.000ZZ" fill="none" style="fill: none;" class="fills"/><g fill="none" class="strokes"><path d="M139.000,238.000L139.000,239.000C148.000,248.000,159.000,254.000,167.000,264.000C169.000,264.000,167.000,260.000,169.000,260.000C163.000,198.000,158.000,135.000,150.000,73.000C158.000,77.000,164.000,84.000,172.000,88.000C160.000,60.000,151.000,31.000,140.000,3.000C138.000,80.000,140.000,160.000,139.000,238.000ZZ" style="fill: none; stroke-width: 0.3; stroke: rgb(177, 126, 21); stroke-opacity: 1;" class="stroke-shape"/></g><path d="M0.000,291.000C9.000,285.000,19.000,280.000,25.000,271.000C30.000,216.000,45.000,163.000,42.000,107.000C40.000,104.000,40.000,98.000,42.000,95.000L40.000,92.000L17.000,159.000C24.000,155.000,30.000,147.000,37.000,144.000C23.000,193.000,12.000,242.000,0.000,291.000ZZ" fill="none" style="fill: none;" class="fills"/><g fill="none" class="strokes"><path d="M0.000,291.000C9.000,285.000,19.000,280.000,25.000,271.000C30.000,216.000,45.000,163.000,42.000,107.000C40.000,104.000,40.000,98.000,42.000,95.000L40.000,92.000L17.000,159.000C24.000,155.000,30.000,147.000,37.000,144.000C23.000,193.000,12.000,242.000,0.000,291.000ZZ" style="fill: none; stroke-width: 0.3; stroke: rgb(243, 216, 104); stroke-opacity: 1;" class="stroke-shape"/></g><path d="M236.000,95.000C230.000,156.000,248.000,214.000,253.000,274.000L249.000,279.000C254.000,272.000,259.000,278.000,263.000,282.000C268.000,285.000,274.000,288.000,277.000,293.000C268.000,244.000,252.000,194.000,241.000,144.000L261.000,159.000L242.000,108.000C240.000,104.000,238.000,92.000,236.000,95.000ZZ" fill="none" style="fill: none;" class="fills"/><g fill="none" class="strokes"><path d="M236.000,95.000C230.000,156.000,248.000,214.000,253.000,274.000L249.000,279.000C254.000,272.000,259.000,278.000,263.000,282.000C268.000,285.000,274.000,288.000,277.000,293.000C268.000,244.000,252.000,194.000,241.000,144.000L261.000,159.000L242.000,108.000C240.000,104.000,238.000,92.000,236.000,95.000ZZ" style="fill: none; stroke-width: 0.3; stroke: rgb(179, 127, 23); stroke-opacity: 1;" class="stroke-shape"/></g><path d="M42.000,107.000C43.000,104.000,41.000,100.000,43.000,98.000L42.000,95.000C40.000,98.000,40.000,104.000,42.000,107.000ZZ" fill="none" style="fill: none;" class="fills"/><g fill="none" class="strokes"><path d="M42.000,107.000C43.000,104.000,41.000,100.000,43.000,98.000L42.000,95.000C40.000,98.000,40.000,104.000,42.000,107.000ZZ" style="fill: none; stroke-width: 0.3; stroke: rgb(195, 156, 54); stroke-opacity: 1;" class="stroke-shape"/></g><path d="M237.000,257.000C241.000,263.000,247.000,269.000,253.000,274.000C248.000,214.000,230.000,156.000,236.000,95.000C230.000,110.000,219.000,126.000,224.000,143.000L237.000,257.000ZZ" fill="none" style="fill: none;" class="fills"/><g fill="none" class="strokes"><path d="M237.000,257.000C241.000,263.000,247.000,269.000,253.000,274.000C248.000,214.000,230.000,156.000,236.000,95.000C230.000,110.000,219.000,126.000,224.000,143.000L237.000,257.000ZZ" style="fill: none; stroke-width: 0.3; stroke: rgb(225, 189, 64); stroke-opacity: 1;" class="stroke-shape"/></g><path d="M42.000,107.000C45.000,163.000,30.000,216.000,25.000,271.000C32.000,286.000,50.000,294.000,61.000,306.000C74.000,317.000,88.000,327.000,100.000,339.000C79.000,337.000,57.000,330.000,37.000,329.000L104.000,369.000C101.000,349.000,103.000,325.000,102.000,304.000L59.000,288.000C51.000,276.000,37.000,264.000,41.000,249.000C45.000,214.000,50.000,179.000,53.000,143.000C58.000,127.000,48.000,113.000,43.000,98.000C41.000,100.000,43.000,104.000,42.000,107.000ZZ" fill="none" style="fill: none;" class="fills"/><g fill="none" class="strokes"><path d="M42.000,107.000C45.000,163.000,30.000,216.000,25.000,271.000C32.000,286.000,50.000,294.000,61.000,306.000C74.000,317.000,88.000,327.000,100.000,339.000C79.000,337.000,57.000,330.000,37.000,329.000L104.000,369.000C101.000,349.000,103.000,325.000,102.000,304.000L59.000,288.000C51.000,276.000,37.000,264.000,41.000,249.000C45.000,214.000,50.000,179.000,53.000,143.000C58.000,127.000,48.000,113.000,43.000,98.000C41.000,100.000,43.000,104.000,42.000,107.000ZZ" style="fill: none; stroke-width: 0.3; stroke: rgb(171, 120, 21); stroke-opacity: 1;" class="stroke-shape"/></g><path d="M112.000,220.000L106.000,277.000C104.000,286.000,107.000,298.000,102.000,304.000C103.000,325.000,101.000,349.000,104.000,369.000L105.000,374.000C107.000,375.000,106.000,377.000,106.000,379.000L139.000,379.000L139.000,238.000C129.000,233.000,122.000,222.000,113.000,216.000C113.000,217.000,114.000,219.000,112.000,220.000ZZ" fill="none" style="fill: none;" class="fills"/><g fill="none" class="strokes"><path d="M112.000,220.000L106.000,277.000C104.000,286.000,107.000,298.000,102.000,304.000C103.000,325.000,101.000,349.000,104.000,369.000L105.000,374.000C107.000,375.000,106.000,377.000,106.000,379.000L139.000,379.000L139.000,238.000C129.000,233.000,122.000,222.000,113.000,216.000C113.000,217.000,114.000,219.000,112.000,220.000ZZ" style="fill: none; stroke-width: 0.3; stroke: rgb(221, 182, 55); stroke-opacity: 1;" class="stroke-shape"/></g><path d="M139.000,368.000C154.000,359.000,165.000,344.000,181.000,339.000C200.000,336.000,221.000,329.000,240.000,329.000C254.000,319.000,267.000,307.000,277.000,293.000C274.000,288.000,268.000,285.000,263.000,282.000C259.000,278.000,254.000,272.000,249.000,279.000C224.000,299.000,200.000,321.000,175.000,339.000C175.000,326.000,175.000,313.000,173.000,301.000L169.000,260.000C167.000,260.000,169.000,264.000,167.000,264.000C159.000,254.000,148.000,248.000,139.000,239.000L139.000,368.000ZZ" fill="none" style="fill: none;" class="fills"/><g fill="none" class="strokes"><path d="M139.000,368.000C154.000,359.000,165.000,344.000,181.000,339.000C200.000,336.000,221.000,329.000,240.000,329.000C254.000,319.000,267.000,307.000,277.000,293.000C274.000,288.000,268.000,285.000,263.000,282.000C259.000,278.000,254.000,272.000,249.000,279.000C224.000,299.000,200.000,321.000,175.000,339.000C175.000,326.000,175.000,313.000,173.000,301.000L169.000,260.000C167.000,260.000,169.000,264.000,167.000,264.000C159.000,254.000,148.000,248.000,139.000,239.000L139.000,368.000ZZ" style="fill: none; stroke-width: 0.3; stroke: rgb(158, 108, 14); stroke-opacity: 1;" class="stroke-shape"/></g><path d="M173.000,301.000C175.000,313.000,175.000,326.000,175.000,339.000C200.000,321.000,224.000,299.000,249.000,279.000L253.000,274.000C247.000,269.000,241.000,263.000,237.000,257.000C233.000,269.000,226.000,283.000,215.000,290.000L174.000,304.000L173.000,301.000ZZ" fill="none" style="fill: none;" class="fills"/><g fill="none" class="strokes"><path d="M173.000,301.000C175.000,313.000,175.000,326.000,175.000,339.000C200.000,321.000,224.000,299.000,249.000,279.000L253.000,274.000C247.000,269.000,241.000,263.000,237.000,257.000C233.000,269.000,226.000,283.000,215.000,290.000L174.000,304.000L173.000,301.000ZZ" style="fill: none; stroke-width: 0.3; stroke: rgb(243, 216, 103); stroke-opacity: 1;" class="stroke-shape"/></g><path d="M0.000,291.000C8.000,306.000,23.000,319.000,37.000,329.000C57.000,330.000,79.000,337.000,100.000,339.000C88.000,327.000,74.000,317.000,61.000,306.000C50.000,294.000,32.000,286.000,25.000,271.000C19.000,280.000,9.000,285.000,0.000,291.000ZZ" fill="none" style="fill: none;" class="fills"/><g fill="none" class="strokes"><path d="M0.000,291.000C8.000,306.000,23.000,319.000,37.000,329.000C57.000,330.000,79.000,337.000,100.000,339.000C88.000,327.000,74.000,317.000,61.000,306.000C50.000,294.000,32.000,286.000,25.000,271.000C19.000,280.000,9.000,285.000,0.000,291.000ZZ" style="fill: none; stroke-width: 0.3; stroke: rgb(221, 182, 55); stroke-opacity: 1;" class="stroke-shape"/></g><path d="M139.000,368.000L139.000,379.000L171.000,379.000C171.000,378.000,170.000,376.000,172.000,375.000C172.000,365.000,186.000,363.000,193.000,358.000L240.000,329.000C221.000,329.000,200.000,336.000,181.000,339.000C165.000,344.000,154.000,359.000,139.000,368.000ZZ" fill="none" style="fill: none;" class="fills"/><g fill="none" class="strokes"><path d="M139.000,368.000L139.000,379.000L171.000,379.000C171.000,378.000,170.000,376.000,172.000,375.000C172.000,365.000,186.000,363.000,193.000,358.000L240.000,329.000C221.000,329.000,200.000,336.000,181.000,339.000C165.000,344.000,154.000,359.000,139.000,368.000ZZ" style="fill: none; stroke-width: 0.3; stroke: rgb(135, 86, 11); stroke-opacity: 1;" class="stroke-shape"/></g><path d="M94.000,391.000C108.000,389.000,124.000,391.000,139.000,390.000L139.000,379.000L106.000,379.000C106.000,377.000,107.000,375.000,105.000,374.000L105.000,379.000L93.000,379.000C94.000,383.000,92.000,388.000,94.000,391.000ZZ" fill="none" style="fill: none;" class="fills"/><g fill="none" class="strokes"><path d="M94.000,391.000C108.000,389.000,124.000,391.000,139.000,390.000L139.000,379.000L106.000,379.000C106.000,377.000,107.000,375.000,105.000,374.000L105.000,379.000L93.000,379.000C94.000,383.000,92.000,388.000,94.000,391.000ZZ" style="fill: none; stroke-width: 0.3; stroke: rgb(242, 216, 103); stroke-opacity: 1;" class="stroke-shape"/></g><path d="M139.000,379.000L139.000,390.000C124.000,391.000,108.000,389.000,94.000,391.000C96.000,391.000,96.000,393.000,98.000,394.000C108.000,406.000,125.000,399.000,139.000,401.000L139.000,413.000L105.000,413.000L95.000,424.000C100.000,434.000,108.000,442.000,113.000,451.000C116.000,454.000,121.000,453.000,125.000,453.000L138.000,453.000L113.000,425.000L139.000,425.000L139.000,452.000C148.000,444.000,155.000,434.000,164.000,425.000L139.000,425.000L139.000,413.000C150.000,414.000,162.000,412.000,173.000,414.000C176.000,412.000,181.000,414.000,184.000,413.000L184.000,402.000C181.000,401.000,172.000,403.000,172.000,401.000L173.000,399.000C163.000,403.000,150.000,400.000,139.000,401.000L139.000,390.000L183.000,390.000L181.000,393.000C187.000,391.000,185.000,384.000,185.000,379.000L172.000,379.000L172.000,375.000C170.000,376.000,171.000,378.000,171.000,379.000L139.000,379.000ZZ" fill="none" style="fill: none;" class="fills"/><g fill="none" class="strokes"><path d="M139.000,379.000L139.000,390.000C124.000,391.000,108.000,389.000,94.000,391.000C96.000,391.000,96.000,393.000,98.000,394.000C108.000,406.000,125.000,399.000,139.000,401.000L139.000,413.000L105.000,413.000L95.000,424.000C100.000,434.000,108.000,442.000,113.000,451.000C116.000,454.000,121.000,453.000,125.000,453.000L138.000,453.000L113.000,425.000L139.000,425.000L139.000,452.000C148.000,444.000,155.000,434.000,164.000,425.000L139.000,425.000L139.000,413.000C150.000,414.000,162.000,412.000,173.000,414.000C176.000,412.000,181.000,414.000,184.000,413.000L184.000,402.000C181.000,401.000,172.000,403.000,172.000,401.000L173.000,399.000C163.000,403.000,150.000,400.000,139.000,401.000L139.000,390.000L183.000,390.000L181.000,393.000C187.000,391.000,185.000,384.000,185.000,379.000L172.000,379.000L172.000,375.000C170.000,376.000,171.000,378.000,171.000,379.000L139.000,379.000ZZ" style="fill: none; stroke-width: 0.3; stroke: rgb(191, 141, 29); stroke-opacity: 1;" class="stroke-shape"/></g><path d="M173.000,399.000L181.000,393.000L183.000,390.000L139.000,390.000L139.000,401.000C150.000,400.000,163.000,403.000,173.000,399.000ZZ" fill="none" style="fill: none;" class="fills"/><g fill="none" class="strokes"><path d="M173.000,399.000L181.000,393.000L183.000,390.000L139.000,390.000L139.000,401.000C150.000,400.000,163.000,403.000,173.000,399.000ZZ" style="fill: none; stroke-width: 0.3; stroke: rgb(135, 87, 9); stroke-opacity: 1;" class="stroke-shape"/></g><path d="M105.000,413.000L139.000,413.000L139.000,401.000C125.000,399.000,108.000,406.000,98.000,394.000C99.000,397.000,103.000,398.000,105.000,400.000C102.000,402.000,97.000,400.000,93.000,401.000L93.000,413.000L105.000,413.000ZZ" fill="none" style="fill: none;" class="fills"/><g fill="none" class="strokes"><path d="M105.000,413.000L139.000,413.000L139.000,401.000C125.000,399.000,108.000,406.000,98.000,394.000C99.000,397.000,103.000,398.000,105.000,400.000C102.000,402.000,97.000,400.000,93.000,401.000L93.000,413.000L105.000,413.000ZZ" style="fill: none; stroke-width: 0.3; stroke: rgb(236, 206, 92); stroke-opacity: 1;" class="stroke-shape"/></g><path d="M184.000,413.000C186.000,410.000,184.000,405.000,185.000,401.000L172.000,401.000C172.000,403.000,181.000,401.000,184.000,402.000L184.000,413.000ZZ" fill="none" style="fill: none;" class="fills"/><g fill="none" class="strokes"><path d="M184.000,413.000C186.000,410.000,184.000,405.000,185.000,401.000L172.000,401.000C172.000,403.000,181.000,401.000,184.000,402.000L184.000,413.000ZZ" style="fill: none; stroke-width: 0.3; stroke: rgb(210, 175, 100); stroke-opacity: 1;" class="stroke-shape"/></g><path d="M139.000,452.000C140.000,507.000,138.000,563.000,140.000,617.000C145.000,602.000,156.000,588.000,153.000,571.000L153.000,453.000C168.000,455.000,171.000,436.000,180.000,428.000C185.000,423.000,175.000,419.000,173.000,414.000C162.000,412.000,150.000,414.000,139.000,413.000L139.000,425.000L164.000,425.000C155.000,434.000,148.000,444.000,139.000,452.000ZZ" fill="none" style="fill: none;" class="fills"/><g fill="none" class="strokes"><path d="M139.000,452.000C140.000,507.000,138.000,563.000,140.000,617.000C145.000,602.000,156.000,588.000,153.000,571.000L153.000,453.000C168.000,455.000,171.000,436.000,180.000,428.000C185.000,423.000,175.000,419.000,173.000,414.000C162.000,412.000,150.000,414.000,139.000,413.000L139.000,425.000L164.000,425.000C155.000,434.000,148.000,444.000,139.000,452.000ZZ" style="fill: none; stroke-width: 0.3; stroke: rgb(143, 94, 14); stroke-opacity: 1;" class="stroke-shape"/></g><path d="M125.000,453.000L125.000,587.000L132.000,605.000C135.000,608.000,137.000,621.000,140.000,617.000C138.000,563.000,140.000,507.000,139.000,452.000L139.000,425.000L113.000,425.000L138.000,453.000L125.000,453.000ZZ" fill="none" style="fill: none;" class="fills"/><g fill="none" class="strokes"><path d="M125.000,453.000L125.000,587.000L132.000,605.000C135.000,608.000,137.000,621.000,140.000,617.000C138.000,563.000,140.000,507.000,139.000,452.000L139.000,425.000L113.000,425.000L138.000,453.000L125.000,453.000ZZ" style="fill: none; stroke-width: 0.3; stroke: rgb(233, 201, 82); stroke-opacity: 1;" class="stroke-shape"/></g><path d="M125.000,587.000L125.000,453.000C121.000,453.000,116.000,454.000,113.000,451.000C115.000,456.000,120.000,454.000,124.000,454.000C125.000,498.000,123.000,544.000,125.000,587.000ZZ" fill="none" style="fill: none;" class="fills"/><g fill="none" class="strokes"><path d="M125.000,587.000L125.000,453.000C121.000,453.000,116.000,454.000,113.000,451.000C115.000,456.000,120.000,454.000,124.000,454.000C125.000,498.000,123.000,544.000,125.000,587.000ZZ" style="fill: none; stroke-width: 0.3; stroke: rgb(245, 235, 195); stroke-opacity: 1;" class="stroke-shape"/></g><path d="M112.000,220.000C114.000,219.000,113.000,217.000,113.000,216.000C122.000,222.000,129.000,233.000,139.000,238.000C140.000,160.000,138.000,80.000,140.000,3.000L138.000,0.000L106.000,88.000L126.000,74.000L112.000,220.000ZZ" stroke="None" style="fill: rgb(243, 216, 102);" class="fills"/><path d="M139.000,238.000L139.000,239.000C148.000,248.000,159.000,254.000,167.000,264.000C169.000,264.000,167.000,260.000,169.000,260.000C163.000,198.000,158.000,135.000,150.000,73.000C158.000,77.000,164.000,84.000,172.000,88.000C160.000,60.000,151.000,31.000,140.000,3.000C138.000,80.000,140.000,160.000,139.000,238.000ZZ" stroke="None" style="fill: rgb(177, 126, 21);" class="fills"/><path d="M0.000,291.000C9.000,285.000,19.000,280.000,25.000,271.000C30.000,216.000,45.000,163.000,42.000,107.000C40.000,104.000,40.000,98.000,42.000,95.000L40.000,92.000L17.000,159.000C24.000,155.000,30.000,147.000,37.000,144.000C23.000,193.000,12.000,242.000,0.000,291.000ZZ" stroke="None" style="fill: rgb(243, 216, 104);" class="fills"/><path d="M236.000,95.000C230.000,156.000,248.000,214.000,253.000,274.000L249.000,279.000C254.000,272.000,259.000,278.000,263.000,282.000C268.000,285.000,274.000,288.000,277.000,293.000C268.000,244.000,252.000,194.000,241.000,144.000L261.000,159.000L242.000,108.000C240.000,104.000,238.000,92.000,236.000,95.000ZZ" stroke="None" style="fill: rgb(179, 127, 23);" class="fills"/><path d="M42.000,107.000C43.000,104.000,41.000,100.000,43.000,98.000L42.000,95.000C40.000,98.000,40.000,104.000,42.000,107.000ZZ" stroke="None" style="fill: rgb(195, 156, 54);" class="fills"/><path d="M237.000,257.000C241.000,263.000,247.000,269.000,253.000,274.000C248.000,214.000,230.000,156.000,236.000,95.000C230.000,110.000,219.000,126.000,224.000,143.000L237.000,257.000ZZ" stroke="None" style="fill: rgb(225, 189, 64);" class="fills"/><path d="M42.000,107.000C45.000,163.000,30.000,216.000,25.000,271.000C32.000,286.000,50.000,294.000,61.000,306.000C74.000,317.000,88.000,327.000,100.000,339.000C79.000,337.000,57.000,330.000,37.000,329.000L104.000,369.000C101.000,349.000,103.000,325.000,102.000,304.000L59.000,288.000C51.000,276.000,37.000,264.000,41.000,249.000C45.000,214.000,50.000,179.000,53.000,143.000C58.000,127.000,48.000,113.000,43.000,98.000C41.000,100.000,43.000,104.000,42.000,107.000ZZ" stroke="None" style="fill: rgb(171, 120, 21);" class="fills"/><path d="M112.000,220.000L106.000,277.000C104.000,286.000,107.000,298.000,102.000,304.000C103.000,325.000,101.000,349.000,104.000,369.000L105.000,374.000C107.000,375.000,106.000,377.000,106.000,379.000L139.000,379.000L139.000,238.000C129.000,233.000,122.000,222.000,113.000,216.000C113.000,217.000,114.000,219.000,112.000,220.000ZZ" stroke="None" style="fill: rgb(221, 182, 55);" class="fills"/><path d="M139.000,368.000C154.000,359.000,165.000,344.000,181.000,339.000C200.000,336.000,221.000,329.000,240.000,329.000C254.000,319.000,267.000,307.000,277.000,293.000C274.000,288.000,268.000,285.000,263.000,282.000C259.000,278.000,254.000,272.000,249.000,279.000C224.000,299.000,200.000,321.000,175.000,339.000C175.000,326.000,175.000,313.000,173.000,301.000L169.000,260.000C167.000,260.000,169.000,264.000,167.000,264.000C159.000,254.000,148.000,248.000,139.000,239.000L139.000,368.000ZZ" stroke="None" style="fill: rgb(158, 108, 14);" class="fills"/><path d="M173.000,301.000C175.000,313.000,175.000,326.000,175.000,339.000C200.000,321.000,224.000,299.000,249.000,279.000L253.000,274.000C247.000,269.000,241.000,263.000,237.000,257.000C233.000,269.000,226.000,283.000,215.000,290.000L174.000,304.000L173.000,301.000ZZ" stroke="None" style="fill: rgb(243, 216, 103);" class="fills"/><path d="M0.000,291.000C8.000,306.000,23.000,319.000,37.000,329.000C57.000,330.000,79.000,337.000,100.000,339.000C88.000,327.000,74.000,317.000,61.000,306.000C50.000,294.000,32.000,286.000,25.000,271.000C19.000,280.000,9.000,285.000,0.000,291.000ZZ" stroke="None" style="fill: rgb(221, 182, 55);" class="fills"/><path d="M139.000,368.000L139.000,379.000L171.000,379.000C171.000,378.000,170.000,376.000,172.000,375.000C172.000,365.000,186.000,363.000,193.000,358.000L240.000,329.000C221.000,329.000,200.000,336.000,181.000,339.000C165.000,344.000,154.000,359.000,139.000,368.000ZZ" stroke="None" style="fill: rgb(135, 86, 11);" class="fills"/><path d="M94.000,391.000C108.000,389.000,124.000,391.000,139.000,390.000L139.000,379.000L106.000,379.000C106.000,377.000,107.000,375.000,105.000,374.000L105.000,379.000L93.000,379.000C94.000,383.000,92.000,388.000,94.000,391.000ZZ" stroke="None" style="fill: rgb(242, 216, 103);" class="fills"/><path d="M139.000,379.000L139.000,390.000C124.000,391.000,108.000,389.000,94.000,391.000C96.000,391.000,96.000,393.000,98.000,394.000C108.000,406.000,125.000,399.000,139.000,401.000L139.000,413.000L105.000,413.000L95.000,424.000C100.000,434.000,108.000,442.000,113.000,451.000C116.000,454.000,121.000,453.000,125.000,453.000L138.000,453.000L113.000,425.000L139.000,425.000L139.000,452.000C148.000,444.000,155.000,434.000,164.000,425.000L139.000,425.000L139.000,413.000C150.000,414.000,162.000,412.000,173.000,414.000C176.000,412.000,181.000,414.000,184.000,413.000L184.000,402.000C181.000,401.000,172.000,403.000,172.000,401.000L173.000,399.000C163.000,403.000,150.000,400.000,139.000,401.000L139.000,390.000L183.000,390.000L181.000,393.000C187.000,391.000,185.000,384.000,185.000,379.000L172.000,379.000L172.000,375.000C170.000,376.000,171.000,378.000,171.000,379.000L139.000,379.000ZZ" stroke="None" style="fill: rgb(191, 141, 29);" class="fills"/><path d="M173.000,399.000L181.000,393.000L183.000,390.000L139.000,390.000L139.000,401.000C150.000,400.000,163.000,403.000,173.000,399.000ZZ" stroke="None" style="fill: rgb(135, 87, 9);" class="fills"/><path d="M105.000,413.000L139.000,413.000L139.000,401.000C125.000,399.000,108.000,406.000,98.000,394.000C99.000,397.000,103.000,398.000,105.000,400.000C102.000,402.000,97.000,400.000,93.000,401.000L93.000,413.000L105.000,413.000ZZ" stroke="None" style="fill: rgb(236, 206, 92);" class="fills"/><path d="M184.000,413.000C186.000,410.000,184.000,405.000,185.000,401.000L172.000,401.000C172.000,403.000,181.000,401.000,184.000,402.000L184.000,413.000ZZ" stroke="None" style="fill: rgb(210, 175, 100);" class="fills"/><path d="M139.000,452.000C140.000,507.000,138.000,563.000,140.000,617.000C145.000,602.000,156.000,588.000,153.000,571.000L153.000,453.000C168.000,455.000,171.000,436.000,180.000,428.000C185.000,423.000,175.000,419.000,173.000,414.000C162.000,412.000,150.000,414.000,139.000,413.000L139.000,425.000L164.000,425.000C155.000,434.000,148.000,444.000,139.000,452.000ZZ" stroke="None" style="fill: rgb(143, 94, 14);" class="fills"/><path d="M125.000,453.000L125.000,587.000L132.000,605.000C135.000,608.000,137.000,621.000,140.000,617.000C138.000,563.000,140.000,507.000,139.000,452.000L139.000,425.000L113.000,425.000L138.000,453.000L125.000,453.000ZZ" stroke="None" style="fill: rgb(233, 201, 82);" class="fills"/><path d="M125.000,587.000L125.000,453.000C121.000,453.000,116.000,454.000,113.000,451.000C115.000,456.000,120.000,454.000,124.000,454.000C125.000,498.000,123.000,544.000,125.000,587.000ZZ" stroke="None" style="fill: rgb(245, 235, 195);" class="fills"/></g></svg>