<svg width="306" xmlns="http://www.w3.org/2000/svg" height="467.201" fill="none"><g style="fill: rgb(0, 0, 0);"><path d="M110.000,203.201C116.000,236.201,121.000,271.201,124.000,304.201L51.000,126.201C58.000,166.201,67.000,207.201,72.000,246.201C76.000,254.201,75.000,263.201,78.000,272.201C71.000,269.201,63.000,268.201,57.000,264.201C40.000,262.201,21.000,253.201,3.000,249.201C57.000,285.201,104.000,334.201,152.000,379.201L160.000,372.201C207.000,331.201,251.000,283.201,303.000,249.201C285.000,253.201,266.000,262.201,249.000,264.201C244.000,268.201,235.000,269.201,229.000,272.201L219.000,279.201C197.000,312.201,176.000,346.201,153.000,377.201C141.000,363.201,132.000,344.201,119.000,329.201L87.000,279.201C101.000,287.201,112.000,298.201,126.000,305.201C133.000,278.201,143.000,252.201,153.000,226.201L153.000,225.201C154.000,151.201,152.000,76.201,154.000,3.201C154.000,2.201,154.000,-0.799,152.000,0.201C141.000,62.201,127.000,122.201,116.000,184.201C112.000,189.201,115.000,201.201,110.000,203.201ZZ" fill="none" style="fill: none;" class="fills"/><g fill="none" class="strokes"><path d="M110.000,203.201C116.000,236.201,121.000,271.201,124.000,304.201L51.000,126.201C58.000,166.201,67.000,207.201,72.000,246.201C76.000,254.201,75.000,263.201,78.000,272.201C71.000,269.201,63.000,268.201,57.000,264.201C40.000,262.201,21.000,253.201,3.000,249.201C57.000,285.201,104.000,334.201,152.000,379.201L160.000,372.201C207.000,331.201,251.000,283.201,303.000,249.201C285.000,253.201,266.000,262.201,249.000,264.201C244.000,268.201,235.000,269.201,229.000,272.201L219.000,279.201C197.000,312.201,176.000,346.201,153.000,377.201C141.000,363.201,132.000,344.201,119.000,329.201L87.000,279.201C101.000,287.201,112.000,298.201,126.000,305.201C133.000,278.201,143.000,252.201,153.000,226.201L153.000,225.201C154.000,151.201,152.000,76.201,154.000,3.201C154.000,2.201,154.000,-0.799,152.000,0.201C141.000,62.201,127.000,122.201,116.000,184.201C112.000,189.201,115.000,201.201,110.000,203.201ZZ" style="fill: none; stroke-width: 0.3; stroke: rgb(191, 200, 205); stroke-opacity: 1;" class="stroke-shape"/></g><path d="M153.000,225.201L181.000,305.201L219.000,279.201L229.000,272.201L233.000,246.201L250.000,153.201C251.000,144.201,256.000,131.201,254.000,125.201L183.000,302.201C184.000,270.201,192.000,237.201,195.000,204.201L154.000,3.201C152.000,76.201,154.000,151.201,153.000,225.201ZZ" fill="none" style="fill: none;" class="fills"/><g fill="none" class="strokes"><path d="M153.000,225.201L181.000,305.201L219.000,279.201L229.000,272.201L233.000,246.201L250.000,153.201C251.000,144.201,256.000,131.201,254.000,125.201L183.000,302.201C184.000,270.201,192.000,237.201,195.000,204.201L154.000,3.201C152.000,76.201,154.000,151.201,153.000,225.201ZZ" style="fill: none; stroke-width: 0.3; stroke: rgb(52, 60, 64); stroke-opacity: 1;" class="stroke-shape"/></g><path d="M51.000,126.201L124.000,304.201C121.000,271.201,116.000,236.201,110.000,203.201L62.000,139.201C59.000,135.201,54.000,124.201,51.000,126.201ZZ" fill="none" style="fill: none;" class="fills"/><g fill="none" class="strokes"><path d="M51.000,126.201L124.000,304.201C121.000,271.201,116.000,236.201,110.000,203.201L62.000,139.201C59.000,135.201,54.000,124.201,51.000,126.201ZZ" style="fill: none; stroke-width: 0.3; stroke: rgb(53, 60, 64); stroke-opacity: 1;" class="stroke-shape"/></g><path d="M195.000,204.201C192.000,237.201,184.000,270.201,183.000,302.201L254.000,125.201L195.000,204.201ZZ" fill="none" style="fill: none;" class="fills"/><g fill="none" class="strokes"><path d="M195.000,204.201C192.000,237.201,184.000,270.201,183.000,302.201L254.000,125.201L195.000,204.201ZZ" style="fill: none; stroke-width: 0.3; stroke: rgb(174, 182, 185); stroke-opacity: 1;" class="stroke-shape"/></g><path d="M57.000,264.201C63.000,268.201,71.000,269.201,78.000,272.201C75.000,263.201,76.000,254.201,72.000,246.201L29.000,203.201C37.000,224.201,49.000,243.201,57.000,264.201ZZ" fill="none" style="fill: none;" class="fills"/><g fill="none" class="strokes"><path d="M57.000,264.201C63.000,268.201,71.000,269.201,78.000,272.201C75.000,263.201,76.000,254.201,72.000,246.201L29.000,203.201C37.000,224.201,49.000,243.201,57.000,264.201ZZ" style="fill: none; stroke-width: 0.3; stroke: rgb(39, 41, 44); stroke-opacity: 1;" class="stroke-shape"/></g><path d="M233.000,246.201L229.000,272.201C235.000,269.201,244.000,268.201,249.000,264.201C257.000,243.201,269.000,224.201,277.000,203.201L233.000,246.201ZZ" fill="none" style="fill: none;" class="fills"/><g fill="none" class="strokes"><path d="M233.000,246.201L229.000,272.201C235.000,269.201,244.000,268.201,249.000,264.201C257.000,243.201,269.000,224.201,277.000,203.201L233.000,246.201ZZ" style="fill: none; stroke-width: 0.3; stroke: rgb(37, 40, 44); stroke-opacity: 1;" class="stroke-shape"/></g><path d="M153.000,226.201L153.000,377.201C176.000,346.201,197.000,312.201,219.000,279.201L181.000,305.201L153.000,225.201L153.000,226.201ZZ" fill="none" style="fill: none;" class="fills"/><g fill="none" class="strokes"><path d="M153.000,226.201L153.000,377.201C176.000,346.201,197.000,312.201,219.000,279.201L181.000,305.201L153.000,225.201L153.000,226.201ZZ" style="fill: none; stroke-width: 0.3; stroke: rgb(168, 177, 182); stroke-opacity: 1;" class="stroke-shape"/></g><path d="M153.000,377.201L153.000,226.201C143.000,252.201,133.000,278.201,126.000,305.201C112.000,298.201,101.000,287.201,87.000,279.201L119.000,329.201C132.000,344.201,141.000,363.201,153.000,377.201ZZ" fill="none" style="fill: none;" class="fills"/><g fill="none" class="strokes"><path d="M153.000,377.201L153.000,226.201C143.000,252.201,133.000,278.201,126.000,305.201C112.000,298.201,101.000,287.201,87.000,279.201L119.000,329.201C132.000,344.201,141.000,363.201,153.000,377.201ZZ" style="fill: none; stroke-width: 0.3; stroke: rgb(228, 235, 238); stroke-opacity: 1;" class="stroke-shape"/></g><path d="M155.000,465.201C151.000,465.201,154.000,453.201,153.000,449.201L153.000,386.201C151.000,380.201,157.000,376.201,160.000,372.201L152.000,379.201C104.000,334.201,57.000,285.201,3.000,249.201C2.000,249.201,1.000,247.201,0.000,248.201L152.000,467.201L155.000,465.201ZZ" fill="none" style="fill: none;" class="fills"/><g fill="none" class="strokes"><path d="M155.000,465.201C151.000,465.201,154.000,453.201,153.000,449.201L153.000,386.201C151.000,380.201,157.000,376.201,160.000,372.201L152.000,379.201C104.000,334.201,57.000,285.201,3.000,249.201C2.000,249.201,1.000,247.201,0.000,248.201L152.000,467.201L155.000,465.201ZZ" style="fill: none; stroke-width: 0.3; stroke: rgb(123, 131, 135); stroke-opacity: 1;" class="stroke-shape"/></g><path d="M303.000,249.201C251.000,283.201,207.000,331.201,160.000,372.201C157.000,376.201,151.000,380.201,153.000,386.201L153.000,449.201C154.000,453.201,151.000,465.201,155.000,465.201L306.000,248.201L303.000,249.201ZZ" fill="none" style="fill: none;" class="fills"/><g fill="none" class="strokes"><path d="M303.000,249.201C251.000,283.201,207.000,331.201,160.000,372.201C157.000,376.201,151.000,380.201,153.000,386.201L153.000,449.201C154.000,453.201,151.000,465.201,155.000,465.201L306.000,248.201L303.000,249.201ZZ" style="fill: none; stroke-width: 0.3; stroke: rgb(37, 40, 43); stroke-opacity: 1;" class="stroke-shape"/></g><path d="M110.000,203.201C116.000,236.201,121.000,271.201,124.000,304.201L51.000,126.201C58.000,166.201,67.000,207.201,72.000,246.201C76.000,254.201,75.000,263.201,78.000,272.201C71.000,269.201,63.000,268.201,57.000,264.201C40.000,262.201,21.000,253.201,3.000,249.201C57.000,285.201,104.000,334.201,152.000,379.201L160.000,372.201C207.000,331.201,251.000,283.201,303.000,249.201C285.000,253.201,266.000,262.201,249.000,264.201C244.000,268.201,235.000,269.201,229.000,272.201L219.000,279.201C197.000,312.201,176.000,346.201,153.000,377.201C141.000,363.201,132.000,344.201,119.000,329.201L87.000,279.201C101.000,287.201,112.000,298.201,126.000,305.201C133.000,278.201,143.000,252.201,153.000,226.201L153.000,225.201C154.000,151.201,152.000,76.201,154.000,3.201C154.000,2.201,154.000,-0.799,152.000,0.201C141.000,62.201,127.000,122.201,116.000,184.201C112.000,189.201,115.000,201.201,110.000,203.201ZZ" stroke="None" style="fill: rgb(191, 200, 205);" class="fills"/><path d="M153.000,225.201L181.000,305.201L219.000,279.201L229.000,272.201L233.000,246.201L250.000,153.201C251.000,144.201,256.000,131.201,254.000,125.201L183.000,302.201C184.000,270.201,192.000,237.201,195.000,204.201L154.000,3.201C152.000,76.201,154.000,151.201,153.000,225.201ZZ" stroke="None" style="fill: rgb(52, 60, 64);" class="fills"/><path d="M51.000,126.201L124.000,304.201C121.000,271.201,116.000,236.201,110.000,203.201L62.000,139.201C59.000,135.201,54.000,124.201,51.000,126.201ZZ" stroke="None" style="fill: rgb(53, 60, 64);" class="fills"/><path d="M195.000,204.201C192.000,237.201,184.000,270.201,183.000,302.201L254.000,125.201L195.000,204.201ZZ" stroke="None" style="fill: rgb(174, 182, 185);" class="fills"/><path d="M57.000,264.201C63.000,268.201,71.000,269.201,78.000,272.201C75.000,263.201,76.000,254.201,72.000,246.201L29.000,203.201C37.000,224.201,49.000,243.201,57.000,264.201ZZ" stroke="None" style="fill: rgb(39, 41, 44);" class="fills"/><path d="M233.000,246.201L229.000,272.201C235.000,269.201,244.000,268.201,249.000,264.201C257.000,243.201,269.000,224.201,277.000,203.201L233.000,246.201ZZ" stroke="None" style="fill: rgb(37, 40, 44);" class="fills"/><path d="M153.000,226.201L153.000,377.201C176.000,346.201,197.000,312.201,219.000,279.201L181.000,305.201L153.000,225.201L153.000,226.201ZZ" stroke="None" style="fill: rgb(168, 177, 182);" class="fills"/><path d="M153.000,377.201L153.000,226.201C143.000,252.201,133.000,278.201,126.000,305.201C112.000,298.201,101.000,287.201,87.000,279.201L119.000,329.201C132.000,344.201,141.000,363.201,153.000,377.201ZZ" stroke="None" style="fill: rgb(228, 235, 238);" class="fills"/><path d="M155.000,465.201C151.000,465.201,154.000,453.201,153.000,449.201L153.000,386.201C151.000,380.201,157.000,376.201,160.000,372.201L152.000,379.201C104.000,334.201,57.000,285.201,3.000,249.201C2.000,249.201,1.000,247.201,0.000,248.201L152.000,467.201L155.000,465.201ZZ" stroke="None" style="fill: rgb(123, 131, 135);" class="fills"/><path d="M303.000,249.201C251.000,283.201,207.000,331.201,160.000,372.201C157.000,376.201,151.000,380.201,153.000,386.201L153.000,449.201C154.000,453.201,151.000,465.201,155.000,465.201L306.000,248.201L303.000,249.201ZZ" stroke="None" style="fill: rgb(37, 40, 43);" class="fills"/></g></svg>