<svg width="608" xmlns="http://www.w3.org/2000/svg" height="428" fill="none"><g style="fill: rgb(0, 0, 0);"><path d="M297.000,28.000C266.000,-1.000,243.000,-5.000,203.000,6.000C163.000,17.000,174.000,69.000,148.000,87.000C121.000,105.000,91.000,120.000,67.000,142.000C43.000,164.000,18.000,183.000,0.000,210.000C67.010,314.197,168.647,391.398,287.000,428.000C290.000,411.000,297.000,396.000,308.000,382.000C311.000,386.000,305.000,392.000,309.000,396.000C330.000,344.000,404.000,336.000,427.000,391.000C453.000,394.000,490.000,393.000,499.000,363.000L488.000,361.000C494.000,348.000,499.000,334.000,497.000,319.000C486.000,330.000,473.000,338.000,460.000,344.000C429.000,312.000,489.000,284.000,513.000,310.000C512.000,325.000,505.000,339.000,497.000,351.000C540.000,336.000,584.000,306.000,608.000,265.000C581.000,237.000,559.000,202.000,524.000,182.000C535.000,141.000,488.000,127.000,469.000,96.000C450.000,65.000,401.000,69.000,384.000,37.000C366.000,5.000,316.000,-6.000,297.000,28.000ZM327.000,103.000C329.000,91.000,330.000,76.000,323.000,62.000L320.000,56.000C357.000,63.000,420.000,66.000,447.000,94.000C474.000,122.000,519.000,150.000,506.000,188.000C531.000,199.000,551.000,219.000,568.000,240.000C573.000,246.000,591.000,263.000,589.000,269.000C587.000,275.000,582.000,281.000,577.000,285.000C576.000,281.000,578.000,277.000,579.000,273.000C568.000,271.000,558.000,264.000,558.000,251.000C554.000,258.000,557.000,266.000,559.000,274.000C561.000,277.000,565.000,276.000,568.000,278.000C567.000,327.000,522.000,299.000,495.000,288.000C468.000,277.000,417.000,288.000,397.000,309.000L395.000,313.000C427.000,325.000,447.000,357.000,479.000,369.000C479.000,372.000,476.000,374.000,473.000,374.000C441.000,391.000,426.000,364.000,403.000,348.000C379.000,333.000,354.000,326.000,329.000,316.000C339.000,313.000,351.000,312.000,362.000,310.000C355.000,307.000,345.000,307.000,338.000,303.000C280.000,297.000,234.000,254.000,261.000,193.000L268.000,180.000C256.000,186.000,245.000,196.000,241.000,209.000C239.000,201.000,245.000,191.000,248.000,183.000C234.000,195.000,230.000,210.000,223.000,226.000C216.000,242.000,215.000,269.000,219.000,286.000C223.000,304.000,198.000,310.000,196.000,328.000C213.000,320.000,232.000,314.000,251.000,312.000C252.000,320.000,257.000,329.000,264.000,332.000C259.000,341.000,255.000,351.000,254.000,362.000C261.000,352.000,271.000,344.000,280.000,337.000C277.000,344.000,275.000,352.000,276.000,360.000C293.000,354.000,313.000,347.000,332.000,350.000C307.000,361.000,283.000,381.000,277.000,409.000C175.551,373.954,87.494,308.261,25.000,221.000C23.000,217.000,19.000,214.000,18.000,209.000C58.000,166.000,103.000,128.000,153.000,100.000L165.000,94.000C167.000,108.000,178.000,133.000,191.000,141.000C204.000,149.000,226.000,168.000,239.000,160.000C253.000,152.000,276.000,137.000,274.000,121.000C282.000,121.000,290.000,124.000,296.000,129.000L295.000,125.000C291.000,111.000,275.000,103.000,265.000,95.000C280.000,98.000,292.000,110.000,303.000,120.000C298.000,74.000,249.000,19.000,199.000,38.000C216.000,51.000,257.000,45.000,263.000,77.000C249.000,78.000,236.000,83.000,225.000,91.000C237.000,95.000,250.000,99.000,260.000,106.000C253.000,112.000,249.000,122.000,257.000,129.000C248.000,129.000,239.000,122.000,232.000,122.000C236.000,127.000,241.000,133.000,247.000,136.000C244.000,141.000,238.000,143.000,235.000,147.000C225.000,144.000,215.000,141.000,207.000,134.000C177.000,113.000,171.000,72.000,185.000,40.000C200.000,7.000,245.000,8.000,271.000,27.000C297.000,46.000,321.000,70.000,327.000,103.000ZM369.000,49.000C352.000,45.000,341.000,42.000,322.000,42.000C303.000,42.000,312.000,27.000,326.000,20.000C342.000,12.000,367.000,40.000,377.000,51.000L369.000,49.000ZM436.000,314.000C434.000,320.000,438.000,324.000,439.000,330.000L428.000,321.000L417.000,314.000C423.000,307.000,432.000,305.000,441.000,306.000L436.000,314.000ZM538.000,318.000C533.000,327.000,523.000,333.000,514.000,337.000C517.000,329.000,522.000,322.000,522.000,314.000C527.000,315.000,532.000,319.000,538.000,318.000ZM489.000,336.000C488.000,344.000,483.000,351.000,479.000,358.000C474.000,358.000,468.000,354.000,466.000,350.000C475.000,348.000,482.000,341.000,489.000,336.000ZZ" fill="none" style="fill: none;" class="fills"/><g fill="none" class="strokes"><path d="M297.000,28.000C266.000,-1.000,243.000,-5.000,203.000,6.000C163.000,17.000,174.000,69.000,148.000,87.000C121.000,105.000,91.000,120.000,67.000,142.000C43.000,164.000,18.000,183.000,0.000,210.000C67.010,314.197,168.647,391.398,287.000,428.000C290.000,411.000,297.000,396.000,308.000,382.000C311.000,386.000,305.000,392.000,309.000,396.000C330.000,344.000,404.000,336.000,427.000,391.000C453.000,394.000,490.000,393.000,499.000,363.000L488.000,361.000C494.000,348.000,499.000,334.000,497.000,319.000C486.000,330.000,473.000,338.000,460.000,344.000C429.000,312.000,489.000,284.000,513.000,310.000C512.000,325.000,505.000,339.000,497.000,351.000C540.000,336.000,584.000,306.000,608.000,265.000C581.000,237.000,559.000,202.000,524.000,182.000C535.000,141.000,488.000,127.000,469.000,96.000C450.000,65.000,401.000,69.000,384.000,37.000C366.000,5.000,316.000,-6.000,297.000,28.000ZM327.000,103.000C329.000,91.000,330.000,76.000,323.000,62.000L320.000,56.000C357.000,63.000,420.000,66.000,447.000,94.000C474.000,122.000,519.000,150.000,506.000,188.000C531.000,199.000,551.000,219.000,568.000,240.000C573.000,246.000,591.000,263.000,589.000,269.000C587.000,275.000,582.000,281.000,577.000,285.000C576.000,281.000,578.000,277.000,579.000,273.000C568.000,271.000,558.000,264.000,558.000,251.000C554.000,258.000,557.000,266.000,559.000,274.000C561.000,277.000,565.000,276.000,568.000,278.000C567.000,327.000,522.000,299.000,495.000,288.000C468.000,277.000,417.000,288.000,397.000,309.000L395.000,313.000C427.000,325.000,447.000,357.000,479.000,369.000C479.000,372.000,476.000,374.000,473.000,374.000C441.000,391.000,426.000,364.000,403.000,348.000C379.000,333.000,354.000,326.000,329.000,316.000C339.000,313.000,351.000,312.000,362.000,310.000C355.000,307.000,345.000,307.000,338.000,303.000C280.000,297.000,234.000,254.000,261.000,193.000L268.000,180.000C256.000,186.000,245.000,196.000,241.000,209.000C239.000,201.000,245.000,191.000,248.000,183.000C234.000,195.000,230.000,210.000,223.000,226.000C216.000,242.000,215.000,269.000,219.000,286.000C223.000,304.000,198.000,310.000,196.000,328.000C213.000,320.000,232.000,314.000,251.000,312.000C252.000,320.000,257.000,329.000,264.000,332.000C259.000,341.000,255.000,351.000,254.000,362.000C261.000,352.000,271.000,344.000,280.000,337.000C277.000,344.000,275.000,352.000,276.000,360.000C293.000,354.000,313.000,347.000,332.000,350.000C307.000,361.000,283.000,381.000,277.000,409.000C175.551,373.954,87.494,308.261,25.000,221.000C23.000,217.000,19.000,214.000,18.000,209.000C58.000,166.000,103.000,128.000,153.000,100.000L165.000,94.000C167.000,108.000,178.000,133.000,191.000,141.000C204.000,149.000,226.000,168.000,239.000,160.000C253.000,152.000,276.000,137.000,274.000,121.000C282.000,121.000,290.000,124.000,296.000,129.000L295.000,125.000C291.000,111.000,275.000,103.000,265.000,95.000C280.000,98.000,292.000,110.000,303.000,120.000C298.000,74.000,249.000,19.000,199.000,38.000C216.000,51.000,257.000,45.000,263.000,77.000C249.000,78.000,236.000,83.000,225.000,91.000C237.000,95.000,250.000,99.000,260.000,106.000C253.000,112.000,249.000,122.000,257.000,129.000C248.000,129.000,239.000,122.000,232.000,122.000C236.000,127.000,241.000,133.000,247.000,136.000C244.000,141.000,238.000,143.000,235.000,147.000C225.000,144.000,215.000,141.000,207.000,134.000C177.000,113.000,171.000,72.000,185.000,40.000C200.000,7.000,245.000,8.000,271.000,27.000C297.000,46.000,321.000,70.000,327.000,103.000ZM369.000,49.000C352.000,45.000,341.000,42.000,322.000,42.000C303.000,42.000,312.000,27.000,326.000,20.000C342.000,12.000,367.000,40.000,377.000,51.000L369.000,49.000ZM436.000,314.000C434.000,320.000,438.000,324.000,439.000,330.000L428.000,321.000L417.000,314.000C423.000,307.000,432.000,305.000,441.000,306.000L436.000,314.000ZM538.000,318.000C533.000,327.000,523.000,333.000,514.000,337.000C517.000,329.000,522.000,322.000,522.000,314.000C527.000,315.000,532.000,319.000,538.000,318.000ZM489.000,336.000C488.000,344.000,483.000,351.000,479.000,358.000C474.000,358.000,468.000,354.000,466.000,350.000C475.000,348.000,482.000,341.000,489.000,336.000ZZ" style="fill: none; stroke-width: 0.3; stroke: rgb(15, 16, 26); stroke-opacity: 1;" class="stroke-shape"/></g><path d="M185.000,40.000C188.000,37.000,194.000,40.000,198.000,38.000C214.000,9.000,259.000,25.000,278.000,43.000C297.000,61.000,320.000,84.000,327.000,111.000C330.000,109.000,327.000,106.000,327.000,103.000C321.000,70.000,297.000,46.000,271.000,27.000C245.000,8.000,200.000,7.000,185.000,40.000ZZ" fill="none" style="fill: none;" class="fills"/><g fill="none" class="strokes"><path d="M185.000,40.000C188.000,37.000,194.000,40.000,198.000,38.000C214.000,9.000,259.000,25.000,278.000,43.000C297.000,61.000,320.000,84.000,327.000,111.000C330.000,109.000,327.000,106.000,327.000,103.000C321.000,70.000,297.000,46.000,271.000,27.000C245.000,8.000,200.000,7.000,185.000,40.000ZZ" style="fill: none; stroke-width: 0.3; stroke: rgb(172, 173, 174); stroke-opacity: 1;" class="stroke-shape"/></g><path d="M326.000,20.000C344.000,19.000,355.000,41.000,369.000,49.000L377.000,51.000C367.000,40.000,342.000,12.000,326.000,20.000ZZ" fill="none" style="fill: none;" class="fills"/><g fill="none" class="strokes"><path d="M326.000,20.000C344.000,19.000,355.000,41.000,369.000,49.000L377.000,51.000C367.000,40.000,342.000,12.000,326.000,20.000ZZ" style="fill: none; stroke-width: 0.3; stroke: rgb(172, 171, 171); stroke-opacity: 1;" class="stroke-shape"/></g><path d="M369.000,49.000C355.000,41.000,344.000,19.000,326.000,20.000C312.000,27.000,303.000,42.000,322.000,42.000C341.000,42.000,352.000,45.000,369.000,49.000ZZ" fill="none" style="fill: none;" class="fills"/><g fill="none" class="strokes"><path d="M369.000,49.000C355.000,41.000,344.000,19.000,326.000,20.000C312.000,27.000,303.000,42.000,322.000,42.000C341.000,42.000,352.000,45.000,369.000,49.000ZZ" style="fill: none; stroke-width: 0.3; stroke: rgb(94, 94, 97); stroke-opacity: 1;" class="stroke-shape"/></g><path d="M198.000,38.000L199.000,38.000C249.000,19.000,298.000,74.000,303.000,120.000C292.000,110.000,280.000,98.000,265.000,95.000C275.000,103.000,291.000,111.000,295.000,125.000C305.000,136.000,313.000,138.000,297.000,151.000C309.000,148.000,327.000,142.000,338.000,147.000C335.000,147.000,332.000,148.000,330.000,151.000C344.000,153.000,355.000,181.000,346.000,185.000C347.000,191.000,352.000,195.000,354.000,200.000C336.000,212.000,337.000,244.000,360.000,249.000C411.000,244.000,477.000,242.000,517.000,268.000C510.000,268.000,505.000,264.000,498.000,263.000C488.000,262.000,463.000,263.000,453.000,260.000C443.000,258.000,420.000,275.000,419.000,274.000L438.000,273.000L436.000,271.000C450.000,265.000,465.000,269.000,479.000,272.000C491.000,273.000,512.000,272.000,518.000,282.000C510.000,282.000,502.000,279.000,493.000,279.000C509.000,284.000,573.000,328.000,559.000,274.000C557.000,266.000,554.000,258.000,558.000,251.000L563.000,244.000C541.000,227.000,526.000,196.000,496.000,190.000C520.000,151.000,457.000,127.000,439.000,96.000C440.000,100.000,442.000,104.000,441.000,109.000C430.000,106.000,420.000,100.000,411.000,94.000C418.000,94.000,423.000,97.000,430.000,97.000C402.000,72.000,360.000,66.000,323.000,62.000C330.000,76.000,329.000,91.000,327.000,103.000C327.000,106.000,330.000,109.000,327.000,111.000C320.000,84.000,297.000,61.000,278.000,43.000C259.000,25.000,214.000,9.000,198.000,38.000ZM421.000,127.000C436.000,131.000,446.000,148.000,460.000,157.000C474.000,167.000,470.000,155.000,477.000,148.000C481.000,144.000,489.000,165.000,489.000,168.000L489.000,171.000L491.000,173.000C492.000,171.000,489.000,165.000,493.000,165.000C499.000,176.000,492.000,190.000,480.000,192.000C495.000,203.000,514.000,213.000,526.000,229.000C493.000,212.000,452.000,220.000,416.000,222.000C422.168,214.804,429.224,208.419,437.000,203.000L439.000,200.000C413.000,207.000,401.000,187.000,384.000,172.000C385.000,169.000,389.000,174.000,390.000,171.000C384.000,160.000,388.000,143.000,373.000,137.000C382.000,128.000,397.000,127.000,409.000,129.000C408.000,125.000,405.000,122.000,403.000,119.000C409.000,120.000,415.000,124.000,421.000,127.000ZM408.000,229.000C424.000,229.000,462.000,236.000,475.000,237.000C488.000,238.000,531.000,257.000,520.000,258.000C510.000,259.000,480.000,240.000,464.000,239.000C448.000,238.000,416.000,230.000,397.000,230.000C394.000,230.000,391.000,231.000,389.000,229.000C394.000,227.000,403.000,227.000,408.000,229.000ZZ" fill="none" style="fill: none;" class="fills"/><g fill="none" class="strokes"><path d="M198.000,38.000L199.000,38.000C249.000,19.000,298.000,74.000,303.000,120.000C292.000,110.000,280.000,98.000,265.000,95.000C275.000,103.000,291.000,111.000,295.000,125.000C305.000,136.000,313.000,138.000,297.000,151.000C309.000,148.000,327.000,142.000,338.000,147.000C335.000,147.000,332.000,148.000,330.000,151.000C344.000,153.000,355.000,181.000,346.000,185.000C347.000,191.000,352.000,195.000,354.000,200.000C336.000,212.000,337.000,244.000,360.000,249.000C411.000,244.000,477.000,242.000,517.000,268.000C510.000,268.000,505.000,264.000,498.000,263.000C488.000,262.000,463.000,263.000,453.000,260.000C443.000,258.000,420.000,275.000,419.000,274.000L438.000,273.000L436.000,271.000C450.000,265.000,465.000,269.000,479.000,272.000C491.000,273.000,512.000,272.000,518.000,282.000C510.000,282.000,502.000,279.000,493.000,279.000C509.000,284.000,573.000,328.000,559.000,274.000C557.000,266.000,554.000,258.000,558.000,251.000L563.000,244.000C541.000,227.000,526.000,196.000,496.000,190.000C520.000,151.000,457.000,127.000,439.000,96.000C440.000,100.000,442.000,104.000,441.000,109.000C430.000,106.000,420.000,100.000,411.000,94.000C418.000,94.000,423.000,97.000,430.000,97.000C402.000,72.000,360.000,66.000,323.000,62.000C330.000,76.000,329.000,91.000,327.000,103.000C327.000,106.000,330.000,109.000,327.000,111.000C320.000,84.000,297.000,61.000,278.000,43.000C259.000,25.000,214.000,9.000,198.000,38.000ZM421.000,127.000C436.000,131.000,446.000,148.000,460.000,157.000C474.000,167.000,470.000,155.000,477.000,148.000C481.000,144.000,489.000,165.000,489.000,168.000L489.000,171.000L491.000,173.000C492.000,171.000,489.000,165.000,493.000,165.000C499.000,176.000,492.000,190.000,480.000,192.000C495.000,203.000,514.000,213.000,526.000,229.000C493.000,212.000,452.000,220.000,416.000,222.000C422.168,214.804,429.224,208.419,437.000,203.000L439.000,200.000C413.000,207.000,401.000,187.000,384.000,172.000C385.000,169.000,389.000,174.000,390.000,171.000C384.000,160.000,388.000,143.000,373.000,137.000C382.000,128.000,397.000,127.000,409.000,129.000C408.000,125.000,405.000,122.000,403.000,119.000C409.000,120.000,415.000,124.000,421.000,127.000ZM408.000,229.000C424.000,229.000,462.000,236.000,475.000,237.000C488.000,238.000,531.000,257.000,520.000,258.000C510.000,259.000,480.000,240.000,464.000,239.000C448.000,238.000,416.000,230.000,397.000,230.000C394.000,230.000,391.000,231.000,389.000,229.000C394.000,227.000,403.000,227.000,408.000,229.000ZZ" style="fill: none; stroke-width: 0.3; stroke: rgb(94, 93, 96); stroke-opacity: 1;" class="stroke-shape"/></g><path d="M185.000,40.000C171.000,72.000,177.000,113.000,207.000,134.000C184.000,112.000,181.000,72.000,195.000,45.000L198.000,38.000C194.000,40.000,188.000,37.000,185.000,40.000ZZ" fill="none" style="fill: none;" class="fills"/><g fill="none" class="strokes"><path d="M185.000,40.000C171.000,72.000,177.000,113.000,207.000,134.000C184.000,112.000,181.000,72.000,195.000,45.000L198.000,38.000C194.000,40.000,188.000,37.000,185.000,40.000ZZ" style="fill: none; stroke-width: 0.3; stroke: rgb(232, 159, 160); stroke-opacity: 1;" class="stroke-shape"/></g><path d="M195.000,45.000C208.000,39.000,222.000,50.000,232.000,60.000C243.000,70.000,226.000,79.000,215.000,85.000C204.000,91.000,237.000,98.000,236.000,109.000C231.000,109.000,227.000,111.000,223.000,112.000L232.000,122.000C239.000,122.000,248.000,129.000,257.000,129.000C249.000,122.000,253.000,112.000,260.000,106.000C250.000,99.000,237.000,95.000,225.000,91.000C236.000,83.000,249.000,78.000,263.000,77.000C257.000,45.000,216.000,51.000,199.000,38.000L198.000,38.000L195.000,45.000ZZ" fill="none" style="fill: none;" class="fills"/><g fill="none" class="strokes"><path d="M195.000,45.000C208.000,39.000,222.000,50.000,232.000,60.000C243.000,70.000,226.000,79.000,215.000,85.000C204.000,91.000,237.000,98.000,236.000,109.000C231.000,109.000,227.000,111.000,223.000,112.000L232.000,122.000C239.000,122.000,248.000,129.000,257.000,129.000C249.000,122.000,253.000,112.000,260.000,106.000C250.000,99.000,237.000,95.000,225.000,91.000C236.000,83.000,249.000,78.000,263.000,77.000C257.000,45.000,216.000,51.000,199.000,38.000L198.000,38.000L195.000,45.000ZZ" style="fill: none; stroke-width: 0.3; stroke: rgb(145, 70, 71); stroke-opacity: 1;" class="stroke-shape"/></g><path d="M207.000,134.000C215.000,141.000,225.000,144.000,235.000,147.000C238.000,143.000,244.000,141.000,247.000,136.000C241.000,133.000,236.000,127.000,232.000,122.000L223.000,112.000C227.000,111.000,231.000,109.000,236.000,109.000C237.000,98.000,204.000,91.000,215.000,85.000C226.000,79.000,243.000,70.000,232.000,60.000C222.000,50.000,208.000,39.000,195.000,45.000C181.000,72.000,184.000,112.000,207.000,134.000ZZ" fill="none" style="fill: none;" class="fills"/><g fill="none" class="strokes"><path d="M207.000,134.000C215.000,141.000,225.000,144.000,235.000,147.000C238.000,143.000,244.000,141.000,247.000,136.000C241.000,133.000,236.000,127.000,232.000,122.000L223.000,112.000C227.000,111.000,231.000,109.000,236.000,109.000C237.000,98.000,204.000,91.000,215.000,85.000C226.000,79.000,243.000,70.000,232.000,60.000C222.000,50.000,208.000,39.000,195.000,45.000C181.000,72.000,184.000,112.000,207.000,134.000ZZ" style="fill: none; stroke-width: 0.3; stroke: rgb(195, 104, 105); stroke-opacity: 1;" class="stroke-shape"/></g><path d="M323.000,62.000C360.000,66.000,402.000,72.000,430.000,97.000C423.000,97.000,418.000,94.000,411.000,94.000C420.000,100.000,430.000,106.000,441.000,109.000C442.000,104.000,440.000,100.000,439.000,96.000C457.000,127.000,520.000,151.000,496.000,190.000C526.000,196.000,541.000,227.000,563.000,244.000L565.000,244.000L568.000,240.000C551.000,219.000,531.000,199.000,506.000,188.000C519.000,150.000,474.000,122.000,447.000,94.000C420.000,66.000,357.000,63.000,320.000,56.000L323.000,62.000ZZ" fill="none" style="fill: none;" class="fills"/><g fill="none" class="strokes"><path d="M323.000,62.000C360.000,66.000,402.000,72.000,430.000,97.000C423.000,97.000,418.000,94.000,411.000,94.000C420.000,100.000,430.000,106.000,441.000,109.000C442.000,104.000,440.000,100.000,439.000,96.000C457.000,127.000,520.000,151.000,496.000,190.000C526.000,196.000,541.000,227.000,563.000,244.000L565.000,244.000L568.000,240.000C551.000,219.000,531.000,199.000,506.000,188.000C519.000,150.000,474.000,122.000,447.000,94.000C420.000,66.000,357.000,63.000,320.000,56.000L323.000,62.000ZZ" style="fill: none; stroke-width: 0.3; stroke: rgb(170, 170, 170); stroke-opacity: 1;" class="stroke-shape"/></g><path d="M153.000,100.000L154.000,100.000C165.000,116.000,162.000,150.000,187.000,161.000C169.000,164.000,153.000,174.000,138.000,185.000C156.000,186.000,176.000,186.000,192.000,195.000C146.000,206.000,100.000,233.000,66.000,271.000C64.000,270.000,64.000,268.000,62.000,268.000C122.000,333.000,196.000,382.000,277.000,409.000C283.000,381.000,307.000,361.000,332.000,350.000C313.000,347.000,293.000,354.000,276.000,360.000C275.000,352.000,277.000,344.000,280.000,337.000C271.000,344.000,261.000,352.000,254.000,362.000C255.000,351.000,259.000,341.000,264.000,332.000C257.000,329.000,252.000,320.000,251.000,312.000C232.000,314.000,213.000,320.000,196.000,328.000C198.000,310.000,223.000,304.000,219.000,286.000C215.000,269.000,216.000,242.000,223.000,226.000C230.000,210.000,234.000,195.000,248.000,183.000C245.000,191.000,239.000,201.000,241.000,209.000C245.000,196.000,256.000,186.000,268.000,180.000L261.000,193.000C247.000,255.000,293.000,298.000,352.000,303.000C348.000,306.000,343.000,302.000,338.000,303.000C345.000,307.000,355.000,307.000,362.000,310.000C351.000,312.000,339.000,313.000,329.000,316.000C354.000,326.000,379.000,333.000,403.000,348.000C426.000,364.000,441.000,391.000,473.000,374.000C465.000,375.000,460.000,366.000,454.000,364.000C434.000,369.000,411.000,330.000,387.000,324.000C394.000,323.000,401.000,327.000,407.000,326.000C388.000,325.000,374.000,303.000,398.000,297.000C397.000,300.000,399.000,303.000,400.000,306.000L397.000,309.000C417.000,288.000,468.000,277.000,495.000,288.000C522.000,299.000,567.000,327.000,568.000,278.000C565.000,276.000,561.000,277.000,559.000,274.000C573.000,328.000,509.000,284.000,493.000,279.000C444.000,274.000,394.000,279.000,347.000,289.000C370.000,281.000,395.000,278.000,419.000,274.000C420.000,275.000,443.000,258.000,453.000,260.000C463.000,263.000,488.000,262.000,498.000,263.000C478.000,258.000,456.000,254.000,435.000,252.000C425.000,252.000,414.000,260.000,402.000,258.000C390.000,256.000,380.000,252.000,368.000,252.000C351.000,252.000,335.000,254.000,318.000,256.000C331.000,252.000,346.000,251.000,360.000,249.000C337.000,244.000,336.000,212.000,354.000,200.000C352.000,195.000,347.000,191.000,346.000,185.000C355.000,181.000,344.000,153.000,330.000,151.000C332.000,148.000,335.000,147.000,338.000,147.000C327.000,142.000,309.000,148.000,297.000,151.000C313.000,138.000,305.000,136.000,295.000,125.000L296.000,129.000C290.000,124.000,282.000,121.000,274.000,121.000C276.000,137.000,253.000,152.000,239.000,160.000C226.000,168.000,204.000,149.000,191.000,141.000C178.000,133.000,167.000,108.000,165.000,94.000L153.000,100.000ZZ" fill="none" style="fill: none;" class="fills"/><g fill="none" class="strokes"><path d="M153.000,100.000L154.000,100.000C165.000,116.000,162.000,150.000,187.000,161.000C169.000,164.000,153.000,174.000,138.000,185.000C156.000,186.000,176.000,186.000,192.000,195.000C146.000,206.000,100.000,233.000,66.000,271.000C64.000,270.000,64.000,268.000,62.000,268.000C122.000,333.000,196.000,382.000,277.000,409.000C283.000,381.000,307.000,361.000,332.000,350.000C313.000,347.000,293.000,354.000,276.000,360.000C275.000,352.000,277.000,344.000,280.000,337.000C271.000,344.000,261.000,352.000,254.000,362.000C255.000,351.000,259.000,341.000,264.000,332.000C257.000,329.000,252.000,320.000,251.000,312.000C232.000,314.000,213.000,320.000,196.000,328.000C198.000,310.000,223.000,304.000,219.000,286.000C215.000,269.000,216.000,242.000,223.000,226.000C230.000,210.000,234.000,195.000,248.000,183.000C245.000,191.000,239.000,201.000,241.000,209.000C245.000,196.000,256.000,186.000,268.000,180.000L261.000,193.000C247.000,255.000,293.000,298.000,352.000,303.000C348.000,306.000,343.000,302.000,338.000,303.000C345.000,307.000,355.000,307.000,362.000,310.000C351.000,312.000,339.000,313.000,329.000,316.000C354.000,326.000,379.000,333.000,403.000,348.000C426.000,364.000,441.000,391.000,473.000,374.000C465.000,375.000,460.000,366.000,454.000,364.000C434.000,369.000,411.000,330.000,387.000,324.000C394.000,323.000,401.000,327.000,407.000,326.000C388.000,325.000,374.000,303.000,398.000,297.000C397.000,300.000,399.000,303.000,400.000,306.000L397.000,309.000C417.000,288.000,468.000,277.000,495.000,288.000C522.000,299.000,567.000,327.000,568.000,278.000C565.000,276.000,561.000,277.000,559.000,274.000C573.000,328.000,509.000,284.000,493.000,279.000C444.000,274.000,394.000,279.000,347.000,289.000C370.000,281.000,395.000,278.000,419.000,274.000C420.000,275.000,443.000,258.000,453.000,260.000C463.000,263.000,488.000,262.000,498.000,263.000C478.000,258.000,456.000,254.000,435.000,252.000C425.000,252.000,414.000,260.000,402.000,258.000C390.000,256.000,380.000,252.000,368.000,252.000C351.000,252.000,335.000,254.000,318.000,256.000C331.000,252.000,346.000,251.000,360.000,249.000C337.000,244.000,336.000,212.000,354.000,200.000C352.000,195.000,347.000,191.000,346.000,185.000C355.000,181.000,344.000,153.000,330.000,151.000C332.000,148.000,335.000,147.000,338.000,147.000C327.000,142.000,309.000,148.000,297.000,151.000C313.000,138.000,305.000,136.000,295.000,125.000L296.000,129.000C290.000,124.000,282.000,121.000,274.000,121.000C276.000,137.000,253.000,152.000,239.000,160.000C226.000,168.000,204.000,149.000,191.000,141.000C178.000,133.000,167.000,108.000,165.000,94.000L153.000,100.000ZZ" style="fill: none; stroke-width: 0.3; stroke: rgb(61, 60, 65); stroke-opacity: 1;" class="stroke-shape"/></g><path d="M25.000,221.000L55.000,189.000C64.000,178.000,78.000,167.000,87.000,158.000C96.000,148.000,113.000,138.000,120.000,129.000C127.000,120.000,155.000,110.000,154.000,100.000L153.000,100.000C103.000,128.000,58.000,166.000,18.000,209.000C19.000,214.000,23.000,217.000,25.000,221.000ZZ" fill="none" style="fill: none;" class="fills"/><g fill="none" class="strokes"><path d="M25.000,221.000L55.000,189.000C64.000,178.000,78.000,167.000,87.000,158.000C96.000,148.000,113.000,138.000,120.000,129.000C127.000,120.000,155.000,110.000,154.000,100.000L153.000,100.000C103.000,128.000,58.000,166.000,18.000,209.000C19.000,214.000,23.000,217.000,25.000,221.000ZZ" style="fill: none; stroke-width: 0.3; stroke: rgb(175, 175, 175); stroke-opacity: 1;" class="stroke-shape"/></g><path d="M25.000,221.000C36.000,238.000,49.000,253.000,62.000,268.000C64.000,268.000,64.000,270.000,66.000,271.000C100.000,233.000,146.000,206.000,192.000,195.000C176.000,186.000,156.000,186.000,138.000,185.000C153.000,174.000,169.000,164.000,187.000,161.000C162.000,150.000,165.000,116.000,154.000,100.000C155.000,110.000,127.000,120.000,120.000,129.000C113.000,138.000,96.000,148.000,87.000,158.000C78.000,167.000,64.000,178.000,55.000,189.000L25.000,221.000ZZ" fill="none" style="fill: none;" class="fills"/><g fill="none" class="strokes"><path d="M25.000,221.000C36.000,238.000,49.000,253.000,62.000,268.000C64.000,268.000,64.000,270.000,66.000,271.000C100.000,233.000,146.000,206.000,192.000,195.000C176.000,186.000,156.000,186.000,138.000,185.000C153.000,174.000,169.000,164.000,187.000,161.000C162.000,150.000,165.000,116.000,154.000,100.000C155.000,110.000,127.000,120.000,120.000,129.000C113.000,138.000,96.000,148.000,87.000,158.000C78.000,167.000,64.000,178.000,55.000,189.000L25.000,221.000ZZ" style="fill: none; stroke-width: 0.3; stroke: rgb(94, 93, 96); stroke-opacity: 1;" class="stroke-shape"/></g><path d="M437.000,203.000C442.000,199.000,448.000,195.000,454.000,193.000C421.000,208.000,404.000,177.000,390.000,154.000C395.000,149.000,403.000,147.000,410.000,146.000C404.000,141.000,396.000,139.000,388.000,138.000C399.000,135.000,412.000,140.000,422.000,144.000C421.000,139.000,416.000,137.000,415.000,132.000C431.000,139.000,440.000,156.000,454.000,167.000L433.000,144.000L438.000,142.000C433.000,136.000,428.000,131.000,421.000,127.000C415.000,124.000,409.000,120.000,403.000,119.000C405.000,122.000,408.000,125.000,409.000,129.000C397.000,127.000,382.000,128.000,373.000,137.000C388.000,143.000,384.000,160.000,390.000,171.000C389.000,174.000,385.000,169.000,384.000,172.000C401.000,187.000,413.000,207.000,439.000,200.000L437.000,203.000ZZ" fill="none" style="fill: none;" class="fills"/><g fill="none" class="strokes"><path d="M437.000,203.000C442.000,199.000,448.000,195.000,454.000,193.000C421.000,208.000,404.000,177.000,390.000,154.000C395.000,149.000,403.000,147.000,410.000,146.000C404.000,141.000,396.000,139.000,388.000,138.000C399.000,135.000,412.000,140.000,422.000,144.000C421.000,139.000,416.000,137.000,415.000,132.000C431.000,139.000,440.000,156.000,454.000,167.000L433.000,144.000L438.000,142.000C433.000,136.000,428.000,131.000,421.000,127.000C415.000,124.000,409.000,120.000,403.000,119.000C405.000,122.000,408.000,125.000,409.000,129.000C397.000,127.000,382.000,128.000,373.000,137.000C388.000,143.000,384.000,160.000,390.000,171.000C389.000,174.000,385.000,169.000,384.000,172.000C401.000,187.000,413.000,207.000,439.000,200.000L437.000,203.000ZZ" style="fill: none; stroke-width: 0.3; stroke: rgb(62, 61, 66); stroke-opacity: 1;" class="stroke-shape"/></g><path d="M421.000,127.000C428.000,131.000,433.000,136.000,438.000,142.000C443.000,147.000,475.000,183.000,480.000,163.000L479.000,153.000C479.000,152.000,476.000,150.000,477.000,148.000C470.000,155.000,474.000,167.000,460.000,157.000C446.000,148.000,436.000,131.000,421.000,127.000ZZ" fill="none" style="fill: none;" class="fills"/><g fill="none" class="strokes"><path d="M421.000,127.000C428.000,131.000,433.000,136.000,438.000,142.000C443.000,147.000,475.000,183.000,480.000,163.000L479.000,153.000C479.000,152.000,476.000,150.000,477.000,148.000C470.000,155.000,474.000,167.000,460.000,157.000C446.000,148.000,436.000,131.000,421.000,127.000ZZ" style="fill: none; stroke-width: 0.3; stroke: rgb(171, 172, 172); stroke-opacity: 1;" class="stroke-shape"/></g><path d="M437.000,203.000L430.000,208.000C447.000,203.000,469.000,202.000,487.000,199.000L473.000,192.000C480.000,188.000,492.000,181.000,489.000,171.000L489.000,168.000C487.000,162.000,481.000,156.000,479.000,153.000L480.000,163.000C483.000,185.000,466.000,177.000,454.000,167.000C440.000,156.000,431.000,139.000,415.000,132.000C416.000,137.000,421.000,139.000,422.000,144.000C412.000,140.000,399.000,135.000,388.000,138.000C396.000,139.000,404.000,141.000,410.000,146.000C403.000,147.000,395.000,149.000,390.000,154.000C404.000,177.000,421.000,208.000,454.000,193.000C448.000,195.000,442.000,199.000,437.000,203.000ZM450.000,182.000C430.000,191.000,412.000,178.000,408.000,158.000C427.000,154.000,443.000,165.000,450.000,182.000ZZ" fill="none" style="fill: none;" class="fills"/><g fill="none" class="strokes"><path d="M437.000,203.000L430.000,208.000C447.000,203.000,469.000,202.000,487.000,199.000L473.000,192.000C480.000,188.000,492.000,181.000,489.000,171.000L489.000,168.000C487.000,162.000,481.000,156.000,479.000,153.000L480.000,163.000C483.000,185.000,466.000,177.000,454.000,167.000C440.000,156.000,431.000,139.000,415.000,132.000C416.000,137.000,421.000,139.000,422.000,144.000C412.000,140.000,399.000,135.000,388.000,138.000C396.000,139.000,404.000,141.000,410.000,146.000C403.000,147.000,395.000,149.000,390.000,154.000C404.000,177.000,421.000,208.000,454.000,193.000C448.000,195.000,442.000,199.000,437.000,203.000ZM450.000,182.000C430.000,191.000,412.000,178.000,408.000,158.000C427.000,154.000,443.000,165.000,450.000,182.000ZZ" style="fill: none; stroke-width: 0.3; stroke: rgb(15, 15, 25); stroke-opacity: 1;" class="stroke-shape"/></g><path d="M454.000,167.000C466.000,177.000,483.000,185.000,480.000,163.000C475.000,183.000,443.000,147.000,438.000,142.000L433.000,144.000L454.000,167.000ZZ" fill="none" style="fill: none;" class="fills"/><g fill="none" class="strokes"><path d="M454.000,167.000C466.000,177.000,483.000,185.000,480.000,163.000C475.000,183.000,443.000,147.000,438.000,142.000L433.000,144.000L454.000,167.000ZZ" style="fill: none; stroke-width: 0.3; stroke: rgb(92, 91, 94); stroke-opacity: 1;" class="stroke-shape"/></g><path d="M477.000,148.000C476.000,150.000,479.000,152.000,479.000,153.000C481.000,156.000,487.000,162.000,489.000,168.000C489.000,165.000,481.000,144.000,477.000,148.000ZZ" fill="none" style="fill: none;" class="fills"/><g fill="none" class="strokes"><path d="M477.000,148.000C476.000,150.000,479.000,152.000,479.000,153.000C481.000,156.000,487.000,162.000,489.000,168.000C489.000,165.000,481.000,144.000,477.000,148.000ZZ" style="fill: none; stroke-width: 0.3; stroke: rgb(65, 64, 68); stroke-opacity: 1;" class="stroke-shape"/></g><path d="M450.000,182.000C443.000,165.000,427.000,154.000,408.000,158.000C412.000,178.000,430.000,191.000,450.000,182.000ZZ" fill="none" style="fill: none;" class="fills"/><g fill="none" class="strokes"><path d="M450.000,182.000C443.000,165.000,427.000,154.000,408.000,158.000C412.000,178.000,430.000,191.000,450.000,182.000ZZ" style="fill: none; stroke-width: 0.3; stroke: rgb(248, 248, 248); stroke-opacity: 1;" class="stroke-shape"/></g><path d="M489.000,171.000C492.000,181.000,480.000,188.000,473.000,192.000L487.000,199.000C469.000,202.000,447.000,203.000,430.000,208.000L416.000,222.000C452.000,220.000,493.000,212.000,526.000,229.000C514.000,213.000,495.000,203.000,480.000,192.000C492.000,190.000,499.000,176.000,493.000,165.000C489.000,165.000,492.000,171.000,491.000,173.000L489.000,171.000ZZ" fill="none" style="fill: none;" class="fills"/><g fill="none" class="strokes"><path d="M489.000,171.000C492.000,181.000,480.000,188.000,473.000,192.000L487.000,199.000C469.000,202.000,447.000,203.000,430.000,208.000L416.000,222.000C452.000,220.000,493.000,212.000,526.000,229.000C514.000,213.000,495.000,203.000,480.000,192.000C492.000,190.000,499.000,176.000,493.000,165.000C489.000,165.000,492.000,171.000,491.000,173.000L489.000,171.000ZZ" style="fill: none; stroke-width: 0.3; stroke: rgb(62, 61, 66); stroke-opacity: 1;" class="stroke-shape"/></g><path d="M338.000,303.000C343.000,302.000,348.000,306.000,352.000,303.000C293.000,298.000,247.000,255.000,261.000,193.000C234.000,254.000,280.000,297.000,338.000,303.000ZZ" fill="none" style="fill: none;" class="fills"/><g fill="none" class="strokes"><path d="M338.000,303.000C343.000,302.000,348.000,306.000,352.000,303.000C293.000,298.000,247.000,255.000,261.000,193.000C234.000,254.000,280.000,297.000,338.000,303.000ZZ" style="fill: none; stroke-width: 0.3; stroke: rgb(164, 164, 165); stroke-opacity: 1;" class="stroke-shape"/></g><path d="M397.000,230.000L408.000,229.000C403.000,227.000,394.000,227.000,389.000,229.000C391.000,231.000,394.000,230.000,397.000,230.000ZZ" fill="none" style="fill: none;" class="fills"/><g fill="none" class="strokes"><path d="M397.000,230.000L408.000,229.000C403.000,227.000,394.000,227.000,389.000,229.000C391.000,231.000,394.000,230.000,397.000,230.000ZZ" style="fill: none; stroke-width: 0.3; stroke: rgb(153, 154, 154); stroke-opacity: 1;" class="stroke-shape"/></g><path d="M397.000,230.000C416.000,230.000,448.000,238.000,464.000,239.000C480.000,240.000,510.000,259.000,520.000,258.000C531.000,257.000,488.000,238.000,475.000,237.000C462.000,236.000,424.000,229.000,408.000,229.000L397.000,230.000ZZ" fill="none" style="fill: none;" class="fills"/><g fill="none" class="strokes"><path d="M397.000,230.000C416.000,230.000,448.000,238.000,464.000,239.000C480.000,240.000,510.000,259.000,520.000,258.000C531.000,257.000,488.000,238.000,475.000,237.000C462.000,236.000,424.000,229.000,408.000,229.000L397.000,230.000ZZ" style="fill: none; stroke-width: 0.3; stroke: rgb(235, 235, 235); stroke-opacity: 1;" class="stroke-shape"/></g><path d="M565.000,244.000L568.000,243.000C566.000,257.000,576.000,268.000,589.000,269.000C591.000,263.000,573.000,246.000,568.000,240.000L565.000,244.000ZZ" fill="none" style="fill: none;" class="fills"/><g fill="none" class="strokes"><path d="M565.000,244.000L568.000,243.000C566.000,257.000,576.000,268.000,589.000,269.000C591.000,263.000,573.000,246.000,568.000,240.000L565.000,244.000ZZ" style="fill: none; stroke-width: 0.3; stroke: rgb(240, 169, 164); stroke-opacity: 1;" class="stroke-shape"/></g><path d="M565.000,244.000L563.000,244.000L558.000,251.000C558.000,264.000,568.000,271.000,579.000,273.000C578.000,277.000,576.000,281.000,577.000,285.000C582.000,281.000,587.000,275.000,589.000,269.000C576.000,268.000,566.000,257.000,568.000,243.000L565.000,244.000ZZ" fill="none" style="fill: none;" class="fills"/><g fill="none" class="strokes"><path d="M565.000,244.000L563.000,244.000L558.000,251.000C558.000,264.000,568.000,271.000,579.000,273.000C578.000,277.000,576.000,281.000,577.000,285.000C582.000,281.000,587.000,275.000,589.000,269.000C576.000,268.000,566.000,257.000,568.000,243.000L565.000,244.000ZZ" style="fill: none; stroke-width: 0.3; stroke: rgb(205, 109, 114); stroke-opacity: 1;" class="stroke-shape"/></g><path d="M360.000,249.000C346.000,251.000,331.000,252.000,318.000,256.000C335.000,254.000,351.000,252.000,368.000,252.000C411.643,248.473,455.570,252.189,498.000,263.000C505.000,264.000,510.000,268.000,517.000,268.000C477.000,242.000,411.000,244.000,360.000,249.000ZZ" fill="none" style="fill: none;" class="fills"/><g fill="none" class="strokes"><path d="M360.000,249.000C346.000,251.000,331.000,252.000,318.000,256.000C335.000,254.000,351.000,252.000,368.000,252.000C411.643,248.473,455.570,252.189,498.000,263.000C505.000,264.000,510.000,268.000,517.000,268.000C477.000,242.000,411.000,244.000,360.000,249.000ZZ" style="fill: none; stroke-width: 0.3; stroke: rgb(232, 232, 232); stroke-opacity: 1;" class="stroke-shape"/></g><path d="M368.000,252.000C380.000,252.000,390.000,256.000,402.000,258.000C414.000,260.000,425.000,252.000,435.000,252.000C413.000,250.000,389.000,250.000,368.000,252.000ZZ" fill="none" style="fill: none;" class="fills"/><g fill="none" class="strokes"><path d="M368.000,252.000C380.000,252.000,390.000,256.000,402.000,258.000C414.000,260.000,425.000,252.000,435.000,252.000C413.000,250.000,389.000,250.000,368.000,252.000ZZ" style="fill: none; stroke-width: 0.3; stroke: rgb(92, 90, 94); stroke-opacity: 1;" class="stroke-shape"/></g><path d="M438.000,273.000C451.000,272.000,466.000,271.000,479.000,272.000C465.000,269.000,450.000,265.000,436.000,271.000L438.000,273.000ZZ" fill="none" style="fill: none;" class="fills"/><g fill="none" class="strokes"><path d="M438.000,273.000C451.000,272.000,466.000,271.000,479.000,272.000C465.000,269.000,450.000,265.000,436.000,271.000L438.000,273.000ZZ" style="fill: none; stroke-width: 0.3; stroke: rgb(74, 72, 77); stroke-opacity: 1;" class="stroke-shape"/></g><path d="M438.000,273.000L419.000,274.000C395.000,278.000,370.000,281.000,347.000,289.000C394.000,279.000,444.000,274.000,493.000,279.000C502.000,279.000,510.000,282.000,518.000,282.000C512.000,272.000,491.000,273.000,479.000,272.000C466.000,271.000,451.000,272.000,438.000,273.000ZZ" fill="none" style="fill: none;" class="fills"/><g fill="none" class="strokes"><path d="M438.000,273.000L419.000,274.000C395.000,278.000,370.000,281.000,347.000,289.000C394.000,279.000,444.000,274.000,493.000,279.000C502.000,279.000,510.000,282.000,518.000,282.000C512.000,272.000,491.000,273.000,479.000,272.000C466.000,271.000,451.000,272.000,438.000,273.000ZZ" style="fill: none; stroke-width: 0.3; stroke: rgb(231, 231, 232); stroke-opacity: 1;" class="stroke-shape"/></g><path d="M473.000,374.000C476.000,374.000,479.000,372.000,479.000,369.000C447.000,357.000,427.000,325.000,395.000,313.000L397.000,309.000L400.000,306.000C399.000,303.000,397.000,300.000,398.000,297.000C374.000,303.000,388.000,325.000,407.000,326.000C401.000,327.000,394.000,323.000,387.000,324.000C411.000,330.000,434.000,369.000,454.000,364.000C460.000,366.000,465.000,375.000,473.000,374.000ZZ" fill="none" style="fill: none;" class="fills"/><g fill="none" class="strokes"><path d="M473.000,374.000C476.000,374.000,479.000,372.000,479.000,369.000C447.000,357.000,427.000,325.000,395.000,313.000L397.000,309.000L400.000,306.000C399.000,303.000,397.000,300.000,398.000,297.000C374.000,303.000,388.000,325.000,407.000,326.000C401.000,327.000,394.000,323.000,387.000,324.000C411.000,330.000,434.000,369.000,454.000,364.000C460.000,366.000,465.000,375.000,473.000,374.000ZZ" style="fill: none; stroke-width: 0.3; stroke: rgb(93, 92, 95); stroke-opacity: 1;" class="stroke-shape"/></g><path d="M428.000,321.000C425.000,315.000,431.000,311.000,436.000,314.000L441.000,306.000C432.000,305.000,423.000,307.000,417.000,314.000L428.000,321.000ZZ" fill="none" style="fill: none;" class="fills"/><g fill="none" class="strokes"><path d="M428.000,321.000C425.000,315.000,431.000,311.000,436.000,314.000L441.000,306.000C432.000,305.000,423.000,307.000,417.000,314.000L428.000,321.000ZZ" style="fill: none; stroke-width: 0.3; stroke: rgb(156, 76, 78); stroke-opacity: 1;" class="stroke-shape"/></g><path d="M428.000,321.000L439.000,330.000C438.000,324.000,434.000,320.000,436.000,314.000C431.000,311.000,425.000,315.000,428.000,321.000ZZ" fill="none" style="fill: none;" class="fills"/><g fill="none" class="strokes"><path d="M428.000,321.000L439.000,330.000C438.000,324.000,434.000,320.000,436.000,314.000C431.000,311.000,425.000,315.000,428.000,321.000ZZ" style="fill: none; stroke-width: 0.3; stroke: rgb(208, 114, 116); stroke-opacity: 1;" class="stroke-shape"/></g><path d="M538.000,318.000C532.000,319.000,527.000,315.000,522.000,314.000C522.000,322.000,517.000,329.000,514.000,337.000C523.000,333.000,533.000,327.000,538.000,318.000ZZ" fill="none" style="fill: none;" class="fills"/><g fill="none" class="strokes"><path d="M538.000,318.000C532.000,319.000,527.000,315.000,522.000,314.000C522.000,322.000,517.000,329.000,514.000,337.000C523.000,333.000,533.000,327.000,538.000,318.000ZZ" style="fill: none; stroke-width: 0.3; stroke: rgb(230, 228, 219); stroke-opacity: 1;" class="stroke-shape"/></g><path d="M489.000,336.000C482.000,341.000,475.000,348.000,466.000,350.000C468.000,354.000,474.000,358.000,479.000,358.000C483.000,351.000,488.000,344.000,489.000,336.000ZZ" fill="none" style="fill: none;" class="fills"/><g fill="none" class="strokes"><path d="M489.000,336.000C482.000,341.000,475.000,348.000,466.000,350.000C468.000,354.000,474.000,358.000,479.000,358.000C483.000,351.000,488.000,344.000,489.000,336.000ZZ" style="fill: none; stroke-width: 0.3; stroke: rgb(228, 227, 215); stroke-opacity: 1;" class="stroke-shape"/></g><path d="M297.000,28.000C266.000,-1.000,243.000,-5.000,203.000,6.000C163.000,17.000,174.000,69.000,148.000,87.000C121.000,105.000,91.000,120.000,67.000,142.000C43.000,164.000,18.000,183.000,0.000,210.000C67.010,314.197,168.647,391.398,287.000,428.000C290.000,411.000,297.000,396.000,308.000,382.000C311.000,386.000,305.000,392.000,309.000,396.000C330.000,344.000,404.000,336.000,427.000,391.000C453.000,394.000,490.000,393.000,499.000,363.000L488.000,361.000C494.000,348.000,499.000,334.000,497.000,319.000C486.000,330.000,473.000,338.000,460.000,344.000C429.000,312.000,489.000,284.000,513.000,310.000C512.000,325.000,505.000,339.000,497.000,351.000C540.000,336.000,584.000,306.000,608.000,265.000C581.000,237.000,559.000,202.000,524.000,182.000C535.000,141.000,488.000,127.000,469.000,96.000C450.000,65.000,401.000,69.000,384.000,37.000C366.000,5.000,316.000,-6.000,297.000,28.000ZM327.000,103.000C329.000,91.000,330.000,76.000,323.000,62.000L320.000,56.000C357.000,63.000,420.000,66.000,447.000,94.000C474.000,122.000,519.000,150.000,506.000,188.000C531.000,199.000,551.000,219.000,568.000,240.000C573.000,246.000,591.000,263.000,589.000,269.000C587.000,275.000,582.000,281.000,577.000,285.000C576.000,281.000,578.000,277.000,579.000,273.000C568.000,271.000,558.000,264.000,558.000,251.000C554.000,258.000,557.000,266.000,559.000,274.000C561.000,277.000,565.000,276.000,568.000,278.000C567.000,327.000,522.000,299.000,495.000,288.000C468.000,277.000,417.000,288.000,397.000,309.000L395.000,313.000C427.000,325.000,447.000,357.000,479.000,369.000C479.000,372.000,476.000,374.000,473.000,374.000C441.000,391.000,426.000,364.000,403.000,348.000C379.000,333.000,354.000,326.000,329.000,316.000C339.000,313.000,351.000,312.000,362.000,310.000C355.000,307.000,345.000,307.000,338.000,303.000C280.000,297.000,234.000,254.000,261.000,193.000L268.000,180.000C256.000,186.000,245.000,196.000,241.000,209.000C239.000,201.000,245.000,191.000,248.000,183.000C234.000,195.000,230.000,210.000,223.000,226.000C216.000,242.000,215.000,269.000,219.000,286.000C223.000,304.000,198.000,310.000,196.000,328.000C213.000,320.000,232.000,314.000,251.000,312.000C252.000,320.000,257.000,329.000,264.000,332.000C259.000,341.000,255.000,351.000,254.000,362.000C261.000,352.000,271.000,344.000,280.000,337.000C277.000,344.000,275.000,352.000,276.000,360.000C293.000,354.000,313.000,347.000,332.000,350.000C307.000,361.000,283.000,381.000,277.000,409.000C175.551,373.954,87.494,308.261,25.000,221.000C23.000,217.000,19.000,214.000,18.000,209.000C58.000,166.000,103.000,128.000,153.000,100.000L165.000,94.000C167.000,108.000,178.000,133.000,191.000,141.000C204.000,149.000,226.000,168.000,239.000,160.000C253.000,152.000,276.000,137.000,274.000,121.000C282.000,121.000,290.000,124.000,296.000,129.000L295.000,125.000C291.000,111.000,275.000,103.000,265.000,95.000C280.000,98.000,292.000,110.000,303.000,120.000C298.000,74.000,249.000,19.000,199.000,38.000C216.000,51.000,257.000,45.000,263.000,77.000C249.000,78.000,236.000,83.000,225.000,91.000C237.000,95.000,250.000,99.000,260.000,106.000C253.000,112.000,249.000,122.000,257.000,129.000C248.000,129.000,239.000,122.000,232.000,122.000C236.000,127.000,241.000,133.000,247.000,136.000C244.000,141.000,238.000,143.000,235.000,147.000C225.000,144.000,215.000,141.000,207.000,134.000C177.000,113.000,171.000,72.000,185.000,40.000C200.000,7.000,245.000,8.000,271.000,27.000C297.000,46.000,321.000,70.000,327.000,103.000ZM369.000,49.000C352.000,45.000,341.000,42.000,322.000,42.000C303.000,42.000,312.000,27.000,326.000,20.000C342.000,12.000,367.000,40.000,377.000,51.000L369.000,49.000ZM436.000,314.000C434.000,320.000,438.000,324.000,439.000,330.000L428.000,321.000L417.000,314.000C423.000,307.000,432.000,305.000,441.000,306.000L436.000,314.000ZM538.000,318.000C533.000,327.000,523.000,333.000,514.000,337.000C517.000,329.000,522.000,322.000,522.000,314.000C527.000,315.000,532.000,319.000,538.000,318.000ZM489.000,336.000C488.000,344.000,483.000,351.000,479.000,358.000C474.000,358.000,468.000,354.000,466.000,350.000C475.000,348.000,482.000,341.000,489.000,336.000ZZ" stroke="None" style="fill: rgb(15, 16, 26);" class="fills"/><path d="M185.000,40.000C188.000,37.000,194.000,40.000,198.000,38.000C214.000,9.000,259.000,25.000,278.000,43.000C297.000,61.000,320.000,84.000,327.000,111.000C330.000,109.000,327.000,106.000,327.000,103.000C321.000,70.000,297.000,46.000,271.000,27.000C245.000,8.000,200.000,7.000,185.000,40.000ZZ" stroke="None" style="fill: rgb(172, 173, 174);" class="fills"/><path d="M326.000,20.000C344.000,19.000,355.000,41.000,369.000,49.000L377.000,51.000C367.000,40.000,342.000,12.000,326.000,20.000ZZ" stroke="None" style="fill: rgb(172, 171, 171);" class="fills"/><path d="M369.000,49.000C355.000,41.000,344.000,19.000,326.000,20.000C312.000,27.000,303.000,42.000,322.000,42.000C341.000,42.000,352.000,45.000,369.000,49.000ZZ" stroke="None" style="fill: rgb(94, 94, 97);" class="fills"/><path d="M198.000,38.000L199.000,38.000C249.000,19.000,298.000,74.000,303.000,120.000C292.000,110.000,280.000,98.000,265.000,95.000C275.000,103.000,291.000,111.000,295.000,125.000C305.000,136.000,313.000,138.000,297.000,151.000C309.000,148.000,327.000,142.000,338.000,147.000C335.000,147.000,332.000,148.000,330.000,151.000C344.000,153.000,355.000,181.000,346.000,185.000C347.000,191.000,352.000,195.000,354.000,200.000C336.000,212.000,337.000,244.000,360.000,249.000C411.000,244.000,477.000,242.000,517.000,268.000C510.000,268.000,505.000,264.000,498.000,263.000C488.000,262.000,463.000,263.000,453.000,260.000C443.000,258.000,420.000,275.000,419.000,274.000L438.000,273.000L436.000,271.000C450.000,265.000,465.000,269.000,479.000,272.000C491.000,273.000,512.000,272.000,518.000,282.000C510.000,282.000,502.000,279.000,493.000,279.000C509.000,284.000,573.000,328.000,559.000,274.000C557.000,266.000,554.000,258.000,558.000,251.000L563.000,244.000C541.000,227.000,526.000,196.000,496.000,190.000C520.000,151.000,457.000,127.000,439.000,96.000C440.000,100.000,442.000,104.000,441.000,109.000C430.000,106.000,420.000,100.000,411.000,94.000C418.000,94.000,423.000,97.000,430.000,97.000C402.000,72.000,360.000,66.000,323.000,62.000C330.000,76.000,329.000,91.000,327.000,103.000C327.000,106.000,330.000,109.000,327.000,111.000C320.000,84.000,297.000,61.000,278.000,43.000C259.000,25.000,214.000,9.000,198.000,38.000ZM421.000,127.000C436.000,131.000,446.000,148.000,460.000,157.000C474.000,167.000,470.000,155.000,477.000,148.000C481.000,144.000,489.000,165.000,489.000,168.000L489.000,171.000L491.000,173.000C492.000,171.000,489.000,165.000,493.000,165.000C499.000,176.000,492.000,190.000,480.000,192.000C495.000,203.000,514.000,213.000,526.000,229.000C493.000,212.000,452.000,220.000,416.000,222.000C422.168,214.804,429.224,208.419,437.000,203.000L439.000,200.000C413.000,207.000,401.000,187.000,384.000,172.000C385.000,169.000,389.000,174.000,390.000,171.000C384.000,160.000,388.000,143.000,373.000,137.000C382.000,128.000,397.000,127.000,409.000,129.000C408.000,125.000,405.000,122.000,403.000,119.000C409.000,120.000,415.000,124.000,421.000,127.000ZM408.000,229.000C424.000,229.000,462.000,236.000,475.000,237.000C488.000,238.000,531.000,257.000,520.000,258.000C510.000,259.000,480.000,240.000,464.000,239.000C448.000,238.000,416.000,230.000,397.000,230.000C394.000,230.000,391.000,231.000,389.000,229.000C394.000,227.000,403.000,227.000,408.000,229.000ZZ" stroke="None" style="fill: rgb(94, 93, 96);" class="fills"/><path d="M185.000,40.000C171.000,72.000,177.000,113.000,207.000,134.000C184.000,112.000,181.000,72.000,195.000,45.000L198.000,38.000C194.000,40.000,188.000,37.000,185.000,40.000ZZ" stroke="None" style="fill: rgb(232, 159, 160);" class="fills"/><path d="M195.000,45.000C208.000,39.000,222.000,50.000,232.000,60.000C243.000,70.000,226.000,79.000,215.000,85.000C204.000,91.000,237.000,98.000,236.000,109.000C231.000,109.000,227.000,111.000,223.000,112.000L232.000,122.000C239.000,122.000,248.000,129.000,257.000,129.000C249.000,122.000,253.000,112.000,260.000,106.000C250.000,99.000,237.000,95.000,225.000,91.000C236.000,83.000,249.000,78.000,263.000,77.000C257.000,45.000,216.000,51.000,199.000,38.000L198.000,38.000L195.000,45.000ZZ" stroke="None" style="fill: rgb(145, 70, 71);" class="fills"/><path d="M207.000,134.000C215.000,141.000,225.000,144.000,235.000,147.000C238.000,143.000,244.000,141.000,247.000,136.000C241.000,133.000,236.000,127.000,232.000,122.000L223.000,112.000C227.000,111.000,231.000,109.000,236.000,109.000C237.000,98.000,204.000,91.000,215.000,85.000C226.000,79.000,243.000,70.000,232.000,60.000C222.000,50.000,208.000,39.000,195.000,45.000C181.000,72.000,184.000,112.000,207.000,134.000ZZ" stroke="None" style="fill: rgb(195, 104, 105);" class="fills"/><path d="M323.000,62.000C360.000,66.000,402.000,72.000,430.000,97.000C423.000,97.000,418.000,94.000,411.000,94.000C420.000,100.000,430.000,106.000,441.000,109.000C442.000,104.000,440.000,100.000,439.000,96.000C457.000,127.000,520.000,151.000,496.000,190.000C526.000,196.000,541.000,227.000,563.000,244.000L565.000,244.000L568.000,240.000C551.000,219.000,531.000,199.000,506.000,188.000C519.000,150.000,474.000,122.000,447.000,94.000C420.000,66.000,357.000,63.000,320.000,56.000L323.000,62.000ZZ" stroke="None" style="fill: rgb(170, 170, 170);" class="fills"/><path d="M153.000,100.000L154.000,100.000C165.000,116.000,162.000,150.000,187.000,161.000C169.000,164.000,153.000,174.000,138.000,185.000C156.000,186.000,176.000,186.000,192.000,195.000C146.000,206.000,100.000,233.000,66.000,271.000C64.000,270.000,64.000,268.000,62.000,268.000C122.000,333.000,196.000,382.000,277.000,409.000C283.000,381.000,307.000,361.000,332.000,350.000C313.000,347.000,293.000,354.000,276.000,360.000C275.000,352.000,277.000,344.000,280.000,337.000C271.000,344.000,261.000,352.000,254.000,362.000C255.000,351.000,259.000,341.000,264.000,332.000C257.000,329.000,252.000,320.000,251.000,312.000C232.000,314.000,213.000,320.000,196.000,328.000C198.000,310.000,223.000,304.000,219.000,286.000C215.000,269.000,216.000,242.000,223.000,226.000C230.000,210.000,234.000,195.000,248.000,183.000C245.000,191.000,239.000,201.000,241.000,209.000C245.000,196.000,256.000,186.000,268.000,180.000L261.000,193.000C247.000,255.000,293.000,298.000,352.000,303.000C348.000,306.000,343.000,302.000,338.000,303.000C345.000,307.000,355.000,307.000,362.000,310.000C351.000,312.000,339.000,313.000,329.000,316.000C354.000,326.000,379.000,333.000,403.000,348.000C426.000,364.000,441.000,391.000,473.000,374.000C465.000,375.000,460.000,366.000,454.000,364.000C434.000,369.000,411.000,330.000,387.000,324.000C394.000,323.000,401.000,327.000,407.000,326.000C388.000,325.000,374.000,303.000,398.000,297.000C397.000,300.000,399.000,303.000,400.000,306.000L397.000,309.000C417.000,288.000,468.000,277.000,495.000,288.000C522.000,299.000,567.000,327.000,568.000,278.000C565.000,276.000,561.000,277.000,559.000,274.000C573.000,328.000,509.000,284.000,493.000,279.000C444.000,274.000,394.000,279.000,347.000,289.000C370.000,281.000,395.000,278.000,419.000,274.000C420.000,275.000,443.000,258.000,453.000,260.000C463.000,263.000,488.000,262.000,498.000,263.000C478.000,258.000,456.000,254.000,435.000,252.000C425.000,252.000,414.000,260.000,402.000,258.000C390.000,256.000,380.000,252.000,368.000,252.000C351.000,252.000,335.000,254.000,318.000,256.000C331.000,252.000,346.000,251.000,360.000,249.000C337.000,244.000,336.000,212.000,354.000,200.000C352.000,195.000,347.000,191.000,346.000,185.000C355.000,181.000,344.000,153.000,330.000,151.000C332.000,148.000,335.000,147.000,338.000,147.000C327.000,142.000,309.000,148.000,297.000,151.000C313.000,138.000,305.000,136.000,295.000,125.000L296.000,129.000C290.000,124.000,282.000,121.000,274.000,121.000C276.000,137.000,253.000,152.000,239.000,160.000C226.000,168.000,204.000,149.000,191.000,141.000C178.000,133.000,167.000,108.000,165.000,94.000L153.000,100.000ZZ" stroke="None" style="fill: rgb(61, 60, 65);" class="fills"/><path d="M25.000,221.000L55.000,189.000C64.000,178.000,78.000,167.000,87.000,158.000C96.000,148.000,113.000,138.000,120.000,129.000C127.000,120.000,155.000,110.000,154.000,100.000L153.000,100.000C103.000,128.000,58.000,166.000,18.000,209.000C19.000,214.000,23.000,217.000,25.000,221.000ZZ" stroke="None" style="fill: rgb(175, 175, 175);" class="fills"/><path d="M25.000,221.000C36.000,238.000,49.000,253.000,62.000,268.000C64.000,268.000,64.000,270.000,66.000,271.000C100.000,233.000,146.000,206.000,192.000,195.000C176.000,186.000,156.000,186.000,138.000,185.000C153.000,174.000,169.000,164.000,187.000,161.000C162.000,150.000,165.000,116.000,154.000,100.000C155.000,110.000,127.000,120.000,120.000,129.000C113.000,138.000,96.000,148.000,87.000,158.000C78.000,167.000,64.000,178.000,55.000,189.000L25.000,221.000ZZ" stroke="None" style="fill: rgb(94, 93, 96);" class="fills"/><path d="M437.000,203.000C442.000,199.000,448.000,195.000,454.000,193.000C421.000,208.000,404.000,177.000,390.000,154.000C395.000,149.000,403.000,147.000,410.000,146.000C404.000,141.000,396.000,139.000,388.000,138.000C399.000,135.000,412.000,140.000,422.000,144.000C421.000,139.000,416.000,137.000,415.000,132.000C431.000,139.000,440.000,156.000,454.000,167.000L433.000,144.000L438.000,142.000C433.000,136.000,428.000,131.000,421.000,127.000C415.000,124.000,409.000,120.000,403.000,119.000C405.000,122.000,408.000,125.000,409.000,129.000C397.000,127.000,382.000,128.000,373.000,137.000C388.000,143.000,384.000,160.000,390.000,171.000C389.000,174.000,385.000,169.000,384.000,172.000C401.000,187.000,413.000,207.000,439.000,200.000L437.000,203.000ZZ" stroke="None" style="fill: rgb(62, 61, 66);" class="fills"/><path d="M421.000,127.000C428.000,131.000,433.000,136.000,438.000,142.000C443.000,147.000,475.000,183.000,480.000,163.000L479.000,153.000C479.000,152.000,476.000,150.000,477.000,148.000C470.000,155.000,474.000,167.000,460.000,157.000C446.000,148.000,436.000,131.000,421.000,127.000ZZ" stroke="None" style="fill: rgb(171, 172, 172);" class="fills"/><path d="M437.000,203.000L430.000,208.000C447.000,203.000,469.000,202.000,487.000,199.000L473.000,192.000C480.000,188.000,492.000,181.000,489.000,171.000L489.000,168.000C487.000,162.000,481.000,156.000,479.000,153.000L480.000,163.000C483.000,185.000,466.000,177.000,454.000,167.000C440.000,156.000,431.000,139.000,415.000,132.000C416.000,137.000,421.000,139.000,422.000,144.000C412.000,140.000,399.000,135.000,388.000,138.000C396.000,139.000,404.000,141.000,410.000,146.000C403.000,147.000,395.000,149.000,390.000,154.000C404.000,177.000,421.000,208.000,454.000,193.000C448.000,195.000,442.000,199.000,437.000,203.000ZM450.000,182.000C430.000,191.000,412.000,178.000,408.000,158.000C427.000,154.000,443.000,165.000,450.000,182.000ZZ" stroke="None" style="fill: rgb(15, 15, 25);" class="fills"/><path d="M454.000,167.000C466.000,177.000,483.000,185.000,480.000,163.000C475.000,183.000,443.000,147.000,438.000,142.000L433.000,144.000L454.000,167.000ZZ" stroke="None" style="fill: rgb(92, 91, 94);" class="fills"/><path d="M477.000,148.000C476.000,150.000,479.000,152.000,479.000,153.000C481.000,156.000,487.000,162.000,489.000,168.000C489.000,165.000,481.000,144.000,477.000,148.000ZZ" stroke="None" style="fill: rgb(65, 64, 68);" class="fills"/><path d="M450.000,182.000C443.000,165.000,427.000,154.000,408.000,158.000C412.000,178.000,430.000,191.000,450.000,182.000ZZ" stroke="None" style="fill: rgb(248, 248, 248);" class="fills"/><path d="M489.000,171.000C492.000,181.000,480.000,188.000,473.000,192.000L487.000,199.000C469.000,202.000,447.000,203.000,430.000,208.000L416.000,222.000C452.000,220.000,493.000,212.000,526.000,229.000C514.000,213.000,495.000,203.000,480.000,192.000C492.000,190.000,499.000,176.000,493.000,165.000C489.000,165.000,492.000,171.000,491.000,173.000L489.000,171.000ZZ" stroke="None" style="fill: rgb(62, 61, 66);" class="fills"/><path d="M338.000,303.000C343.000,302.000,348.000,306.000,352.000,303.000C293.000,298.000,247.000,255.000,261.000,193.000C234.000,254.000,280.000,297.000,338.000,303.000ZZ" stroke="None" style="fill: rgb(164, 164, 165);" class="fills"/><path d="M397.000,230.000L408.000,229.000C403.000,227.000,394.000,227.000,389.000,229.000C391.000,231.000,394.000,230.000,397.000,230.000ZZ" stroke="None" style="fill: rgb(153, 154, 154);" class="fills"/><path d="M397.000,230.000C416.000,230.000,448.000,238.000,464.000,239.000C480.000,240.000,510.000,259.000,520.000,258.000C531.000,257.000,488.000,238.000,475.000,237.000C462.000,236.000,424.000,229.000,408.000,229.000L397.000,230.000ZZ" stroke="None" style="fill: rgb(235, 235, 235);" class="fills"/><path d="M565.000,244.000L568.000,243.000C566.000,257.000,576.000,268.000,589.000,269.000C591.000,263.000,573.000,246.000,568.000,240.000L565.000,244.000ZZ" stroke="None" style="fill: rgb(240, 169, 164);" class="fills"/><path d="M565.000,244.000L563.000,244.000L558.000,251.000C558.000,264.000,568.000,271.000,579.000,273.000C578.000,277.000,576.000,281.000,577.000,285.000C582.000,281.000,587.000,275.000,589.000,269.000C576.000,268.000,566.000,257.000,568.000,243.000L565.000,244.000ZZ" stroke="None" style="fill: rgb(205, 109, 114);" class="fills"/><path d="M360.000,249.000C346.000,251.000,331.000,252.000,318.000,256.000C335.000,254.000,351.000,252.000,368.000,252.000C411.643,248.473,455.570,252.189,498.000,263.000C505.000,264.000,510.000,268.000,517.000,268.000C477.000,242.000,411.000,244.000,360.000,249.000ZZ" stroke="None" style="fill: rgb(232, 232, 232);" class="fills"/><path d="M368.000,252.000C380.000,252.000,390.000,256.000,402.000,258.000C414.000,260.000,425.000,252.000,435.000,252.000C413.000,250.000,389.000,250.000,368.000,252.000ZZ" stroke="None" style="fill: rgb(92, 90, 94);" class="fills"/><path d="M438.000,273.000C451.000,272.000,466.000,271.000,479.000,272.000C465.000,269.000,450.000,265.000,436.000,271.000L438.000,273.000ZZ" stroke="None" style="fill: rgb(74, 72, 77);" class="fills"/><path d="M438.000,273.000L419.000,274.000C395.000,278.000,370.000,281.000,347.000,289.000C394.000,279.000,444.000,274.000,493.000,279.000C502.000,279.000,510.000,282.000,518.000,282.000C512.000,272.000,491.000,273.000,479.000,272.000C466.000,271.000,451.000,272.000,438.000,273.000ZZ" stroke="None" style="fill: rgb(231, 231, 232);" class="fills"/><path d="M473.000,374.000C476.000,374.000,479.000,372.000,479.000,369.000C447.000,357.000,427.000,325.000,395.000,313.000L397.000,309.000L400.000,306.000C399.000,303.000,397.000,300.000,398.000,297.000C374.000,303.000,388.000,325.000,407.000,326.000C401.000,327.000,394.000,323.000,387.000,324.000C411.000,330.000,434.000,369.000,454.000,364.000C460.000,366.000,465.000,375.000,473.000,374.000ZZ" stroke="None" style="fill: rgb(93, 92, 95);" class="fills"/><path d="M428.000,321.000C425.000,315.000,431.000,311.000,436.000,314.000L441.000,306.000C432.000,305.000,423.000,307.000,417.000,314.000L428.000,321.000ZZ" stroke="None" style="fill: rgb(156, 76, 78);" class="fills"/><path d="M428.000,321.000L439.000,330.000C438.000,324.000,434.000,320.000,436.000,314.000C431.000,311.000,425.000,315.000,428.000,321.000ZZ" stroke="None" style="fill: rgb(208, 114, 116);" class="fills"/><path d="M538.000,318.000C532.000,319.000,527.000,315.000,522.000,314.000C522.000,322.000,517.000,329.000,514.000,337.000C523.000,333.000,533.000,327.000,538.000,318.000ZZ" stroke="None" style="fill: rgb(230, 228, 219);" class="fills"/><path d="M489.000,336.000C482.000,341.000,475.000,348.000,466.000,350.000C468.000,354.000,474.000,358.000,479.000,358.000C483.000,351.000,488.000,344.000,489.000,336.000ZZ" stroke="None" style="fill: rgb(228, 227, 215);" class="fills"/></g></svg>