<svg width="327.025" xmlns="http://www.w3.org/2000/svg" height="257.471" fill="none"><g style="fill: rgb(0, 0, 0);"><path d="M120.000,146.159C139.000,142.159,161.000,157.159,166.000,176.159L166.000,175.159C167.000,118.159,165.000,60.159,167.000,4.159C167.000,3.159,168.000,-0.841,165.000,0.159C163.000,28.159,157.000,56.159,153.000,84.159C150.000,107.159,142.000,135.159,117.000,144.159L120.000,146.159ZZ" fill="none" style="fill: none;" class="fills"/><g fill="none" class="strokes"><path d="M120.000,146.159C139.000,142.159,161.000,157.159,166.000,176.159L166.000,175.159C167.000,118.159,165.000,60.159,167.000,4.159C167.000,3.159,168.000,-0.841,165.000,0.159C163.000,28.159,157.000,56.159,153.000,84.159C150.000,107.159,142.000,135.159,117.000,144.159L120.000,146.159ZZ" style="fill: none; stroke-width: 0.3; stroke: rgb(215, 217, 217); stroke-opacity: 1;" class="stroke-shape"/></g><path d="M166.000,175.159L167.000,172.159C168.000,119.159,166.000,64.159,168.000,11.159C169.000,8.159,167.000,6.159,167.000,4.159C165.000,60.159,167.000,118.159,166.000,175.159ZZ" fill="none" style="fill: none;" class="fills"/><g fill="none" class="strokes"><path d="M166.000,175.159L167.000,172.159C168.000,119.159,166.000,64.159,168.000,11.159C169.000,8.159,167.000,6.159,167.000,4.159C165.000,60.159,167.000,118.159,166.000,175.159ZZ" style="fill: none; stroke-width: 0.3; stroke: rgb(150, 151, 152); stroke-opacity: 1;" class="stroke-shape"/></g><path d="M167.000,172.159C174.000,155.159,194.000,142.159,212.000,146.159L215.000,144.159C192.000,137.159,183.000,111.159,180.000,89.159L168.000,11.159C166.000,64.159,168.000,119.159,167.000,172.159ZZ" fill="none" style="fill: none;" class="fills"/><g fill="none" class="strokes"><path d="M167.000,172.159C174.000,155.159,194.000,142.159,212.000,146.159L215.000,144.159C192.000,137.159,183.000,111.159,180.000,89.159L168.000,11.159C166.000,64.159,168.000,119.159,167.000,172.159ZZ" style="fill: none; stroke-width: 0.3; stroke: rgb(128, 129, 129); stroke-opacity: 1;" class="stroke-shape"/></g><path d="M4.000,101.159C30.000,129.159,17.000,180.159,49.000,209.159C63.000,223.159,81.000,234.159,100.000,236.159C122.000,243.159,144.000,220.159,165.000,231.159L168.000,232.159L166.000,228.159C159.000,213.159,147.000,199.159,135.000,189.159C114.000,221.159,66.000,214.159,46.000,185.159C25.000,157.159,34.000,115.159,0.000,95.159C0.000,97.159,2.000,100.159,4.000,101.159ZZ" fill="none" style="fill: none;" class="fills"/><g fill="none" class="strokes"><path d="M4.000,101.159C30.000,129.159,17.000,180.159,49.000,209.159C63.000,223.159,81.000,234.159,100.000,236.159C122.000,243.159,144.000,220.159,165.000,231.159L168.000,232.159L166.000,228.159C159.000,213.159,147.000,199.159,135.000,189.159C114.000,221.159,66.000,214.159,46.000,185.159C25.000,157.159,34.000,115.159,0.000,95.159C0.000,97.159,2.000,100.159,4.000,101.159ZZ" style="fill: none; stroke-width: 0.3; stroke: rgb(214, 216, 216); stroke-opacity: 1;" class="stroke-shape"/></g><path d="M4.000,101.159C23.000,129.159,10.000,166.159,25.000,195.159C35.000,220.159,57.000,242.159,82.000,252.159C111.000,266.159,143.000,250.159,165.000,231.159C144.000,220.159,122.000,243.159,100.000,236.159C81.000,234.159,63.000,223.159,49.000,209.159C17.000,180.159,30.000,129.159,4.000,101.159ZZ" fill="none" style="fill: none;" class="fills"/><g fill="none" class="strokes"><path d="M4.000,101.159C23.000,129.159,10.000,166.159,25.000,195.159C35.000,220.159,57.000,242.159,82.000,252.159C111.000,266.159,143.000,250.159,165.000,231.159C144.000,220.159,122.000,243.159,100.000,236.159C81.000,234.159,63.000,223.159,49.000,209.159C17.000,180.159,30.000,129.159,4.000,101.159ZZ" style="fill: none; stroke-width: 0.3; stroke: rgb(144, 145, 146); stroke-opacity: 1;" class="stroke-shape"/></g><path d="M326.000,101.159C309.000,123.159,311.000,153.159,302.000,178.159C293.000,200.159,274.000,220.159,252.000,230.159C224.000,248.159,196.000,224.159,167.000,229.159C172.000,214.159,183.000,200.159,197.000,190.159C186.000,174.159,194.000,152.159,212.000,146.159C194.000,142.159,174.000,155.159,167.000,172.159L166.000,175.159L166.000,228.159L168.000,232.159L185.000,244.159C217.000,268.159,261.000,255.159,286.000,227.159C317.000,199.159,313.000,155.159,321.000,118.159C321.000,112.159,330.000,102.159,326.000,101.159ZZ" fill="none" style="fill: none;" class="fills"/><g fill="none" class="strokes"><path d="M326.000,101.159C309.000,123.159,311.000,153.159,302.000,178.159C293.000,200.159,274.000,220.159,252.000,230.159C224.000,248.159,196.000,224.159,167.000,229.159C172.000,214.159,183.000,200.159,197.000,190.159C186.000,174.159,194.000,152.159,212.000,146.159C194.000,142.159,174.000,155.159,167.000,172.159L166.000,175.159L166.000,228.159L168.000,232.159L185.000,244.159C217.000,268.159,261.000,255.159,286.000,227.159C317.000,199.159,313.000,155.159,321.000,118.159C321.000,112.159,330.000,102.159,326.000,101.159ZZ" style="fill: none; stroke-width: 0.3; stroke: rgb(71, 72, 72); stroke-opacity: 1;" class="stroke-shape"/></g><path d="M197.000,190.159C183.244,199.782,172.772,213.395,167.000,229.159C196.000,224.159,224.000,248.159,252.000,230.159C274.000,220.159,293.000,200.159,302.000,178.159C311.000,153.159,309.000,123.159,326.000,101.159C296.000,122.159,307.000,163.159,283.000,188.159C262.000,215.159,218.000,219.159,197.000,190.159ZZ" fill="none" style="fill: none;" class="fills"/><g fill="none" class="strokes"><path d="M197.000,190.159C183.244,199.782,172.772,213.395,167.000,229.159C196.000,224.159,224.000,248.159,252.000,230.159C274.000,220.159,293.000,200.159,302.000,178.159C311.000,153.159,309.000,123.159,326.000,101.159C296.000,122.159,307.000,163.159,283.000,188.159C262.000,215.159,218.000,219.159,197.000,190.159ZZ" style="fill: none; stroke-width: 0.3; stroke: rgb(129, 130, 130); stroke-opacity: 1;" class="stroke-shape"/></g><path d="M120.000,146.159C138.000,151.159,146.000,174.159,135.000,189.159C147.000,199.159,159.000,213.159,166.000,228.159L166.000,176.159C161.000,157.159,139.000,142.159,120.000,146.159ZZ" fill="none" style="fill: none;" class="fills"/><g fill="none" class="strokes"><path d="M120.000,146.159C138.000,151.159,146.000,174.159,135.000,189.159C147.000,199.159,159.000,213.159,166.000,228.159L166.000,176.159C161.000,157.159,139.000,142.159,120.000,146.159ZZ" style="fill: none; stroke-width: 0.3; stroke: rgb(146, 147, 147); stroke-opacity: 1;" class="stroke-shape"/></g><path d="M120.000,146.159C139.000,142.159,161.000,157.159,166.000,176.159L166.000,175.159C167.000,118.159,165.000,60.159,167.000,4.159C167.000,3.159,168.000,-0.841,165.000,0.159C163.000,28.159,157.000,56.159,153.000,84.159C150.000,107.159,142.000,135.159,117.000,144.159L120.000,146.159ZZ" stroke="None" style="fill: rgb(215, 217, 217);" class="fills"/><path d="M166.000,175.159L167.000,172.159C168.000,119.159,166.000,64.159,168.000,11.159C169.000,8.159,167.000,6.159,167.000,4.159C165.000,60.159,167.000,118.159,166.000,175.159ZZ" stroke="None" style="fill: rgb(150, 151, 152);" class="fills"/><path d="M167.000,172.159C174.000,155.159,194.000,142.159,212.000,146.159L215.000,144.159C192.000,137.159,183.000,111.159,180.000,89.159L168.000,11.159C166.000,64.159,168.000,119.159,167.000,172.159ZZ" stroke="None" style="fill: rgb(128, 129, 129);" class="fills"/><path d="M4.000,101.159C30.000,129.159,17.000,180.159,49.000,209.159C63.000,223.159,81.000,234.159,100.000,236.159C122.000,243.159,144.000,220.159,165.000,231.159L168.000,232.159L166.000,228.159C159.000,213.159,147.000,199.159,135.000,189.159C114.000,221.159,66.000,214.159,46.000,185.159C25.000,157.159,34.000,115.159,0.000,95.159C0.000,97.159,2.000,100.159,4.000,101.159ZZ" stroke="None" style="fill: rgb(214, 216, 216);" class="fills"/><path d="M4.000,101.159C23.000,129.159,10.000,166.159,25.000,195.159C35.000,220.159,57.000,242.159,82.000,252.159C111.000,266.159,143.000,250.159,165.000,231.159C144.000,220.159,122.000,243.159,100.000,236.159C81.000,234.159,63.000,223.159,49.000,209.159C17.000,180.159,30.000,129.159,4.000,101.159ZZ" stroke="None" style="fill: rgb(144, 145, 146);" class="fills"/><path d="M326.000,101.159C309.000,123.159,311.000,153.159,302.000,178.159C293.000,200.159,274.000,220.159,252.000,230.159C224.000,248.159,196.000,224.159,167.000,229.159C172.000,214.159,183.000,200.159,197.000,190.159C186.000,174.159,194.000,152.159,212.000,146.159C194.000,142.159,174.000,155.159,167.000,172.159L166.000,175.159L166.000,228.159L168.000,232.159L185.000,244.159C217.000,268.159,261.000,255.159,286.000,227.159C317.000,199.159,313.000,155.159,321.000,118.159C321.000,112.159,330.000,102.159,326.000,101.159ZZ" stroke="None" style="fill: rgb(71, 72, 72);" class="fills"/><path d="M197.000,190.159C183.244,199.782,172.772,213.395,167.000,229.159C196.000,224.159,224.000,248.159,252.000,230.159C274.000,220.159,293.000,200.159,302.000,178.159C311.000,153.159,309.000,123.159,326.000,101.159C296.000,122.159,307.000,163.159,283.000,188.159C262.000,215.159,218.000,219.159,197.000,190.159ZZ" stroke="None" style="fill: rgb(129, 130, 130);" class="fills"/><path d="M120.000,146.159C138.000,151.159,146.000,174.159,135.000,189.159C147.000,199.159,159.000,213.159,166.000,228.159L166.000,176.159C161.000,157.159,139.000,142.159,120.000,146.159ZZ" stroke="None" style="fill: rgb(146, 147, 147);" class="fills"/></g></svg>